<svg id="Layer_1" data-name="Layer 1" xmlns="http://www.w3.org/2000/svg" viewBox="0 0 283.46 283.46"><defs><style>.cls-1{fill:#f5e134;}.cls-2{fill:#a1c854;}.cls-3{fill:#fff;}.cls-4{fill:#ec6271;}</style></defs><polygon class="cls-1" points="0 141.73 0 226.74 85.01 141.73 0 141.73"/><polygon class="cls-1" points="141.73 198.63 56.9 283.46 141.73 283.46 141.73 198.63"/><polygon class="cls-2" points="141.73 141.73 85.01 141.73 0 226.74 0 283.46 56.9 283.46 141.73 198.63 141.73 141.73"/><polygon class="cls-3" points="248.03 0 177.16 0 212.6 35.43 248.03 0"/><polygon class="cls-3" points="283.46 141.73 283.46 106.3 248.03 141.73 283.46 141.73"/><polygon class="cls-3" points="141.73 0 141.73 35.43 177.16 0 141.73 0"/><polygon class="cls-3" points="141.73 141.73 177.16 141.73 141.73 106.3 141.73 141.73"/><polygon class="cls-3" points="141.73 35.43 141.73 106.3 177.16 70.87 141.73 35.43"/><rect class="cls-3" x="187.54" y="45.81" width="50.11" height="50.11" transform="translate(12.16 171.09) rotate(-45)"/><polygon class="cls-3" points="248.03 0 283.46 35.43 283.46 0 248.03 0"/><polygon class="cls-3" points="177.16 141.73 248.03 141.73 212.6 106.3 177.16 141.73"/><polygon class="cls-3" points="283.46 106.3 283.46 35.43 248.03 70.87 283.46 106.3"/><rect class="cls-4" x="152.11" y="10.38" width="50.11" height="50.11" transform="translate(26.84 135.65) rotate(-45)"/><polygon class="cls-4" points="248.03 70.87 248.03 70.87 212.6 106.3 248.03 141.73 283.46 106.3 248.03 70.87 248.03 70.87"/><rect class="cls-4" x="152.11" y="81.24" width="50.11" height="50.11" transform="translate(-23.27 156.41) rotate(-45)"/><polygon class="cls-4" points="212.6 35.43 248.03 70.87 248.03 70.87 248.03 70.87 283.46 35.43 248.03 0 212.6 35.43"/><rect fill="#091107" width="141.73" height="141.73"/><rect fill="#091107" x="141.73" y="141.73" width="141.73" height="141.73" transform="translate(425.2 425.19) rotate(180)"/><path class="cls-3" d="M160.23,175.3V160.23h4.27l4.57,12.92h.33V160.23h2.44V175.3h-4.18L163,162.37h-.31V175.3Z"/><path class="cls-3" d="M182.89,167.69v5a1,1,0,0,0,.25.71,1.2,1.2,0,0,0,.71.3l-.06,1.82a4.66,4.66,0,0,1-2.93-.81,8.38,8.38,0,0,1-3.54.81c-2.18,0-3.28-1.16-3.28-3.49a3,3,0,0,1,.89-2.42,4.92,4.92,0,0,1,2.74-.91l2.84-.24v-.79a1.33,1.33,0,0,0-1.52-1.58c-.94,0-2.11.06-3.52.17l-.7.05-.09-1.7a19.2,19.2,0,0,1,4.41-.57,4.08,4.08,0,0,1,2.91.87A3.74,3.74,0,0,1,182.89,167.69ZM178,170.42a1.48,1.48,0,0,0-1.52,1.65c0,1,.45,1.52,1.34,1.52a8.39,8.39,0,0,0,2.34-.36l.39-.13v-2.92Z"/><path class="cls-3" d="M191,166.35h-3v4.84a5.17,5.17,0,0,0,.2,1.78c.13.29.47.44,1,.44l1.8-.07.11,1.92a12.72,12.72,0,0,1-2.24.28,3.15,3.15,0,0,1-2.56-.85,5.36,5.36,0,0,1-.7-3.24v-5.1h-1.4v-2h1.4v-3.19H188v3.19h3Z"/><path class="cls-3" d="M193.2,162.43V159.9h2.4v2.53Zm0,12.87v-11h2.4v11Z"/><path class="cls-3" d="M198.89,165.49a5.7,5.7,0,0,1,7.55,0,6.85,6.85,0,0,1,1.13,4.29,7,7,0,0,1-1.1,4.31c-.73,1-2,1.45-3.8,1.45s-3.08-.48-3.81-1.45a7.07,7.07,0,0,1-1.1-4.31A6.85,6.85,0,0,1,198.89,165.49Zm1.8,7.15a2.67,2.67,0,0,0,4,0,6.21,6.21,0,0,0,.5-2.88,5.49,5.49,0,0,0-.54-2.84,2.67,2.67,0,0,0-3.89,0,5.49,5.49,0,0,0-.54,2.84A6.06,6.06,0,0,0,200.69,172.64Z"/><path class="cls-3" d="M211.66,175.3h-2.39v-11h2.37V165a6.2,6.2,0,0,1,3-.92,3.31,3.31,0,0,1,3,1.24,7.85,7.85,0,0,1,.8,4.11v5.89h-2.37v-5.83a5.92,5.92,0,0,0-.39-2.53,1.59,1.59,0,0,0-1.57-.75,5.53,5.53,0,0,0-2.16.44l-.33.14Z"/><path class="cls-3" d="M229.15,167.69v5a1,1,0,0,0,.25.71,1.2,1.2,0,0,0,.71.3l-.06,1.82a4.66,4.66,0,0,1-2.93-.81,8.38,8.38,0,0,1-3.54.81c-2.18,0-3.28-1.16-3.28-3.49a3,3,0,0,1,.89-2.42,4.92,4.92,0,0,1,2.74-.91l2.84-.24v-.79a1.33,1.33,0,0,0-1.52-1.58c-.94,0-2.11.06-3.52.17l-.7.05-.09-1.7a19.2,19.2,0,0,1,4.41-.57,4.08,4.08,0,0,1,2.91.87A3.74,3.74,0,0,1,229.15,167.69Zm-4.93,2.73a1.48,1.48,0,0,0-1.52,1.65c0,1,.45,1.52,1.34,1.52a8.27,8.27,0,0,0,2.33-.36l.4-.13v-2.92Z"/><path class="cls-3" d="M232,175.3V159.73h2.4V175.3Z"/><path class="cls-3" d="M165.29,201.54c-2.2,0-3.69-.6-4.48-1.82s-1.18-3.22-1.18-6,.4-4.77,1.19-6,2.28-1.77,4.47-1.77a18.91,18.91,0,0,1,4.31.55l-.09,2a23,23,0,0,0-4-.35,2.85,2.85,0,0,0-2.68,1.18,9.44,9.44,0,0,0-.71,4.42,9.66,9.66,0,0,0,.69,4.42,2.81,2.81,0,0,0,2.66,1.18,24.81,24.81,0,0,0,4-.33l.07,2A20.72,20.72,0,0,1,165.29,201.54Z"/><path class="cls-3" d="M172.22,191.49a5.7,5.7,0,0,1,7.55,0,6.85,6.85,0,0,1,1.13,4.29,7.07,7.07,0,0,1-1.1,4.31c-.74,1-2,1.45-3.81,1.45s-3.07-.48-3.8-1.45a7,7,0,0,1-1.1-4.31A6.78,6.78,0,0,1,172.22,191.49Zm1.79,7.15a2.67,2.67,0,0,0,4,0,6.06,6.06,0,0,0,.51-2.88,5.49,5.49,0,0,0-.54-2.84,2.14,2.14,0,0,0-1.95-.84,2.11,2.11,0,0,0-1.94.84,5.49,5.49,0,0,0-.54,2.84A6.21,6.21,0,0,0,174,198.64Z"/><path class="cls-3" d="M182.64,201.3V185.73H185V201.3Z"/><path class="cls-3" d="M187.74,201.3V185.73h2.4V201.3Z"/><path class="cls-3" d="M200.3,199.32l.62-.06,0,1.78a22.48,22.48,0,0,1-4.44.5A4.2,4.2,0,0,1,193,200.2a6.89,6.89,0,0,1-1.07-4.29q0-5.85,4.78-5.85,4.62,0,4.62,5l-.16,1.71h-6.82a3,3,0,0,0,.6,2,2.82,2.82,0,0,0,2.13.64C198.13,199.46,199.2,199.41,200.3,199.32ZM199,195a3.79,3.79,0,0,0-.51-2.28,2.13,2.13,0,0,0-1.75-.65,2.22,2.22,0,0,0-1.8.68,3.66,3.66,0,0,0-.58,2.25Z"/><path class="cls-3" d="M213,202.8c0,2.4-1.74,3.61-5.22,3.61a7.7,7.7,0,0,1-3.71-.69,2.58,2.58,0,0,1-1.21-2.48,2.47,2.47,0,0,1,.39-1.4,5.88,5.88,0,0,1,1.28-1.26,1.79,1.79,0,0,1-.73-1.61,3.39,3.39,0,0,1,.6-1.43l.19-.33a3.53,3.53,0,0,1-1.58-3.3,3.44,3.44,0,0,1,1.19-2.9,5.06,5.06,0,0,1,3.21-.93,8.81,8.81,0,0,1,1.91.22l.33.07,3.41-.09v1.94l-1.82-.11a2.88,2.88,0,0,1,.59,1.8,3.51,3.51,0,0,1-1.09,3,5.63,5.63,0,0,1-3.4.83,4.35,4.35,0,0,1-1-.09,3.24,3.24,0,0,0-.31,1.15.55.55,0,0,0,.4.56,7.15,7.15,0,0,0,2,.18,6.88,6.88,0,0,1,3.59.7A3,3,0,0,1,213,202.8Zm-7.79.22a1.16,1.16,0,0,0,.62,1.1,4.81,4.81,0,0,0,2.11.33c1.77,0,2.66-.51,2.66-1.52,0-.57-.16-.93-.47-1.09a5.22,5.22,0,0,0-1.88-.25l-2.16-.13a3,3,0,0,0-.68.73A1.67,1.67,0,0,0,205.23,203Zm.66-7.62a2.19,2.19,0,0,0,1.56.47,2.14,2.14,0,0,0,1.55-.47,2,2,0,0,0,.48-1.49,2,2,0,0,0-.49-1.48,2.14,2.14,0,0,0-1.56-.48,1.76,1.76,0,0,0-2,2A2,2,0,0,0,205.89,195.4Z"/><path class="cls-3" d="M222.54,199.32l.62-.06,0,1.78a22.48,22.48,0,0,1-4.44.5,4.2,4.2,0,0,1-3.51-1.34,6.89,6.89,0,0,1-1.07-4.29q0-5.85,4.78-5.85,4.62,0,4.62,5l-.16,1.71H216.6a3.09,3.09,0,0,0,.6,2,2.82,2.82,0,0,0,2.13.64C220.37,199.46,221.44,199.41,222.54,199.32ZM221.22,195a3.79,3.79,0,0,0-.51-2.28A2.13,2.13,0,0,0,219,192a2.23,2.23,0,0,0-1.8.68,3.73,3.73,0,0,0-.58,2.25Z"/><path class="cls-3" d="M233.39,192.35v9H231v-9h-1.27v-2H231v-.7a5.6,5.6,0,0,1,.68-3.24,2.93,2.93,0,0,1,2.42-.88l2.38.23,0,1.95c-.72,0-1.32,0-1.79,0a1.1,1.1,0,0,0-1,.43,2.93,2.93,0,0,0-.29,1.57v.68h2.9v2Z"/><path class="cls-3" d="M238.59,191.49a5.7,5.7,0,0,1,7.55,0,6.85,6.85,0,0,1,1.13,4.29,7.07,7.07,0,0,1-1.1,4.31c-.73,1-2,1.45-3.8,1.45s-3.08-.48-3.81-1.45a7.07,7.07,0,0,1-1.1-4.31A6.85,6.85,0,0,1,238.59,191.49Zm1.8,7.15a2.67,2.67,0,0,0,4,0,6.21,6.21,0,0,0,.5-2.88,5.49,5.49,0,0,0-.54-2.84,2.67,2.67,0,0,0-3.89,0,5.49,5.49,0,0,0-.54,2.84A6.06,6.06,0,0,0,240.39,198.64Z"/><path class="cls-3" d="M249,201.3v-11h2.37v1.32a10.67,10.67,0,0,1,3.74-1.56v2.4a15.13,15.13,0,0,0-3.23,1l-.49.2v7.67Z"/><path class="cls-3" d="M165.44,227.7h-5.21V212.63h5.21q3.48,0,4.75,1.76t1.28,5.53a17.62,17.62,0,0,1-.25,3.24,7.55,7.55,0,0,1-.89,2.41Q169.07,227.7,165.44,227.7Zm3.5-7.78a8.5,8.5,0,0,0-.68-3.94c-.46-.81-1.4-1.21-2.82-1.21h-2.77v10.78h2.77a2.88,2.88,0,0,0,2.91-1.61,6.57,6.57,0,0,0,.47-1.74A18.12,18.12,0,0,0,168.94,219.92Z"/><path class="cls-3" d="M173.82,214.83V212.3h2.4v2.53Zm0,12.87v-11h2.4v11Z"/><path class="cls-3" d="M188.36,229.2c0,2.4-1.74,3.61-5.21,3.61a7.86,7.86,0,0,1-3.72-.68,2.61,2.61,0,0,1-1.21-2.49,2.47,2.47,0,0,1,.39-1.4,5.88,5.88,0,0,1,1.28-1.26,1.81,1.81,0,0,1-.73-1.61,3.39,3.39,0,0,1,.6-1.43l.2-.33a3.52,3.52,0,0,1-1.59-3.3,3.44,3.44,0,0,1,1.19-2.9,5.06,5.06,0,0,1,3.21-.93,8.83,8.83,0,0,1,1.92.22l.33.07,3.41-.09v1.94l-1.83-.11a2.82,2.82,0,0,1,.59,1.8,3.51,3.51,0,0,1-1.09,3,5.6,5.6,0,0,1-3.39.83,4.38,4.38,0,0,1-1-.09,3.24,3.24,0,0,0-.31,1.15.58.58,0,0,0,.41.57,7.7,7.7,0,0,0,2,.17,6.72,6.72,0,0,1,3.58.71A2.93,2.93,0,0,1,188.36,229.2Zm-7.79.22a1.16,1.16,0,0,0,.62,1.1,4.81,4.81,0,0,0,2.11.33c1.77,0,2.66-.51,2.66-1.52,0-.57-.16-.93-.47-1.09a5.18,5.18,0,0,0-1.88-.25l-2.16-.13a3,3,0,0,0-.68.73A1.67,1.67,0,0,0,180.57,229.42Zm.66-7.62a2.22,2.22,0,0,0,1.56.47,2.19,2.19,0,0,0,1.56-.47,2.06,2.06,0,0,0,.47-1.49,2,2,0,0,0-.49-1.48,2.14,2.14,0,0,0-1.56-.48,1.76,1.76,0,0,0-2,2A2,2,0,0,0,181.23,221.8Z"/><path class="cls-3" d="M190.1,214.83V212.3h2.4v2.53Zm0,12.87v-11h2.4v11Z"/><path class="cls-3" d="M201.06,218.75h-3v4.84a5.17,5.17,0,0,0,.2,1.78c.13.3.47.44,1,.44l1.8-.06.11,1.91a13,13,0,0,1-2.24.29,3.15,3.15,0,0,1-2.56-.86,5.36,5.36,0,0,1-.7-3.24v-5.1h-1.41V216.7h1.41v-3.19H198v3.19h3Z"/><path class="cls-3" d="M211.21,220.09v5a1,1,0,0,0,.25.71,1.14,1.14,0,0,0,.71.3l-.06,1.83a4.66,4.66,0,0,1-2.93-.82,8.39,8.39,0,0,1-3.54.82c-2.18,0-3.28-1.17-3.28-3.5a3,3,0,0,1,.89-2.42,4.85,4.85,0,0,1,2.74-.9l2.84-.25v-.79a1.63,1.63,0,0,0-.38-1.23,1.67,1.67,0,0,0-1.14-.35c-.94,0-2.11.06-3.52.17l-.7,0L203,217a19.2,19.2,0,0,1,4.41-.57,4.08,4.08,0,0,1,2.91.87A3.74,3.74,0,0,1,211.21,220.09Zm-4.93,2.73a1.48,1.48,0,0,0-1.52,1.65c0,1,.45,1.52,1.34,1.52a8.39,8.39,0,0,0,2.34-.36l.39-.13v-2.92Z"/><path class="cls-3" d="M214,227.7V212.13h2.4V227.7Z"/><path class="cls-3" d="M164.65,240.92c-1.86,0-2.79.66-2.79,2a1.57,1.57,0,0,0,.66,1.44,12.49,12.49,0,0,0,2.91,1.06,7.83,7.83,0,0,1,3.18,1.5,3.58,3.58,0,0,1,.92,2.73,4.48,4.48,0,0,1-1.35,3.56,5.44,5.44,0,0,1-3.68,1.17,21.33,21.33,0,0,1-4.14-.44l-.79-.15.24-2a36.12,36.12,0,0,0,4.53.4c1.82,0,2.73-.81,2.73-2.42a1.63,1.63,0,0,0-.62-1.4,9.37,9.37,0,0,0-2.77-1,7.51,7.51,0,0,1-3.21-1.48,3.85,3.85,0,0,1-1.06-3,3.72,3.72,0,0,1,1.33-3.09,5.89,5.89,0,0,1,3.69-1,24.47,24.47,0,0,1,4,.39l.77.14-.19,2A43.71,43.71,0,0,0,164.65,240.92Z"/><path class="cls-3" d="M174,254.1h-2.4V238.53H174v9l1.36-.13,2.6-4.29h2.68l-3.17,5.15,3.35,5.85h-2.71l-2.68-4.64-1.43.15Z"/><path class="cls-3" d="M182.39,241.23V238.7h2.4v2.53Zm0,12.87v-11h2.4v11Z"/><path class="cls-3" d="M187.44,254.1V238.53h2.4V254.1Z"/><path class="cls-3" d="M192.55,254.1V238.53H195V254.1Z"/><path class="cls-3" d="M204.9,245.37a30.64,30.64,0,0,0-3.77-.35,3.39,3.39,0,0,0-1.61.27,1,1,0,0,0-.46.87.87.87,0,0,0,.5.84,11.86,11.86,0,0,0,2.33.56,5.27,5.27,0,0,1,2.61,1,3.13,3.13,0,0,1,.77,2.42,2.94,2.94,0,0,1-1.11,2.55,5.47,5.47,0,0,1-3.25.81,19.53,19.53,0,0,1-3.39-.37l-.68-.11.09-2a33.7,33.7,0,0,0,3.81.35,3.42,3.42,0,0,0,1.66-.29,1,1,0,0,0,.49-.94.94.94,0,0,0-.47-.91,9,9,0,0,0-2.27-.55,6,6,0,0,1-2.63-.94,2.79,2.79,0,0,1-.83-2.33,2.92,2.92,0,0,1,1.15-2.53,4.91,4.91,0,0,1,3-.84,21.56,21.56,0,0,1,3.46.35l.68.14Z"/><path class="cls-3" d="M86.89,77.72A1.72,1.72,0,0,0,85.17,76h-5.9a1.72,1.72,0,0,0-1.72,1.72V89.61c-.45,0-.94,0-1.5,0H69c-3.51,0-4.8.6-6.63,2.44l-4.95,4.9c-2.17,2.17-2.58,3.12-2.58,6.71v8.85c0,3.6.41,4.55,2.58,6.72L59,120.8c1.83,1.83,3.12,2.44,6.64,2.44h7a1.72,1.72,0,0,0,1.72-1.72v-5.26A1.72,1.72,0,0,0,73,114.57H66.12a.93.93,0,0,1-.85-.35l-.91-1a.92.92,0,0,1-.32-.81v-8a2.06,2.06,0,0,1,.74-1.83L68.18,99a2.07,2.07,0,0,1,1.91-.75h5.38a.93.93,0,0,1,.85.34l.91,1a.93.93,0,0,1,.32.81v21.21a1.72,1.72,0,0,0,1.72,1.72h5.9a1.72,1.72,0,0,0,1.72-1.72Z"/><path class="cls-3" d="M120.61,93.62,119,92c-1.83-1.84-3.12-2.44-6.64-2.44h-7c-3.51,0-4.8.6-6.63,2.44l-5,4.9c-2.17,2.17-2.58,3.12-2.58,6.71v8.85c0,3.6.41,4.55,2.58,6.72l1.62,1.62c1.83,1.83,3.12,2.44,6.64,2.44h7a1.72,1.72,0,0,0,1.72-1.72v-5.26a1.71,1.71,0,0,0-1.47-1.69h-6.86a.93.93,0,0,1-.85-.35l-.91-1a.92.92,0,0,1-.32-.81v-8a2.06,2.06,0,0,1,.74-1.83l3.4-3.61a2.07,2.07,0,0,1,1.91-.75h5.38a.93.93,0,0,1,.85.34l.91,1a.93.93,0,0,1,.32.81v21.21a1.72,1.72,0,0,0,1.72,1.72h5.9a1.72,1.72,0,0,0,1.72-1.72V100.33C123.18,96.74,122.78,95.79,120.61,93.62Z"/><path class="cls-3" d="M46.4,92c-1.83-1.84-3.12-2.44-6.64-2.44h-7c-3.51,0-4.81.6-6.63,2.44l-4.95,4.9c-2.17,2.17-2.58,3.12-2.58,6.71v8.85c0,3.6.41,4.55,2.58,6.72l1.62,1.62c1.83,1.83,3.12,2.44,6.64,2.44h7a1.72,1.72,0,0,0,1.72-1.72v-5.26a1.72,1.72,0,0,0-1.48-1.69H29.83a.93.93,0,0,1-.85-.35l-.91-1a.92.92,0,0,1-.32-.81v-8a2.08,2.08,0,0,1,.73-1.83L31.89,99a2.07,2.07,0,0,1,1.91-.75h5.38a.93.93,0,0,1,.85.34l.91,1a.93.93,0,0,1,.32.81v21.21A1.72,1.72,0,0,0,43,123.24h5.9a1.72,1.72,0,0,0,1.72-1.72V100.33c0-3.59-.41-4.54-2.58-6.71Z"/></svg>