<?xml version="1.0" encoding="UTF-8"?>
<svg width="512px" height="521px" viewBox="0 0 512 521" version="1.1" xmlns="http://www.w3.org/2000/svg" xmlns:xlink="http://www.w3.org/1999/xlink">
    <title>Logo and Type</title>
    <g id="Page-1" stroke="none" stroke-width="1" fill="none" fill-rule="evenodd">
        <g id="Group" fill-rule="nonzero">
            <g id="Artboard-4">
                <g id="_2F0hZT" transform="translate(4.943448, 0.000000)" fill="#FF0000">
                    <path d="M447.685738,92.8957883 C447.866581,96.5429255 446.846789,100.148596 444.783228,103.15817 C441.082703,108.731705 436.46411,113.271924 429.924634,115.338556 C424.274979,117.107932 418.854841,116.400181 414.292745,112.532325 C411.678402,110.368071 409.404736,107.82101 407.548469,104.977089 C404.462345,100.068839 404.660083,94.6474707 406.994097,89.470276 C409.752938,83.2665056 414.675938,78.2849306 420.839283,75.4603554 C428.960662,71.6314253 437.21269,74.0448544 443.469683,81.7381021 C446.135614,85.039758 447.968221,88.6492854 447.685738,92.8957883 Z M423.625269,108.193815 C424.589241,108.034571 425.606179,108.013338 426.513655,107.691312 C432.431669,105.599909 436.601821,101.530344 438.992331,95.8046427 C440.704883,91.6961512 439.666759,87.913225 436.474703,84.8132779 C433.427421,81.8548809 429.765738,80.9808091 425.856883,82.5378601 C420.256662,84.7672741 416.18891,88.7802193 414.042041,94.4563781 C411.605628,100.900446 416.718566,108.048726 423.625269,108.193815 L423.625269,108.193815 Z" id="Shape"></path>
                    <path d="M451.636966,149.915705 C446.386317,149.841391 441.919559,147.958775 438.695724,143.793664 C436.782936,141.398542 435.173483,138.775235 433.90411,135.983637 C431.750179,131.029384 432.382234,125.947735 435.171752,121.439365 C439.709131,114.103531 446.336883,109.531463 454.945545,108.324749 C459.956083,107.616998 464.507586,109.074964 468.2752,112.592484 C471.025735,115.140775 473.176273,118.270283 474.571034,121.754314 C476.806179,127.342004 476.156469,132.788144 472.805517,137.632696 C468.169269,144.328015 461.749848,148.514359 453.600221,149.781233 C452.957572,149.880318 452.293738,149.87324 451.636966,149.915705 Z M440.337655,131.18155 C440.651917,137.300053 446.238014,142.551561 452.021848,141.627947 C458.37771,140.615864 463.36,137.229278 466.650924,131.694669 C468.741297,128.177149 468.381131,124.511002 466.078897,121.110261 C463.776662,117.70952 460.609324,115.947221 456.545103,116.527577 C450.189241,117.42642 445.348193,120.844854 442.014897,126.276839 C441.114483,127.710034 440.86731,129.53603 440.32,131.18155 L440.337655,131.18155 Z" id="Shape"></path>
                    <path d="M374.925241,78.3302836 L367.99029,73.4538828 C375.758566,62.3386616 383.484469,51.3331418 391.295117,40.1613006 L398.2336,45.0270851 C395.271062,49.2735879 392.365021,53.4351607 389.353048,57.7665936 L402.184828,66.7727183 L411.114814,54.0792136 L418.042703,58.9556144 L394.720221,92.2552741 L387.795862,87.3753346 L398.110014,72.5904272 L385.299421,63.5666087 L374.925241,78.3302836 Z" id="Path"></path>
                    <path d="M307.934455,35.1893535 C307.401269,42.0474556 312.094014,43.742518 317.743669,44.5812023 C318.991308,44.7553214 320.262299,44.6341255 321.454786,44.227327 C324.8128,43.0347675 325.501352,38.968741 322.609434,36.9233422 C320.024717,35.0938072 317.150455,33.681845 314.413903,32.0646352 C312.810814,31.1209679 311.219494,30.1501701 309.639945,29.152242 C303.962041,25.5887183 303.774897,19.6188431 306.419641,14.5371947 C308.538262,10.446397 312.189352,8.41161437 316.744386,8.31606805 C323.100248,8.18513422 328.785214,9.97928166 333.117793,14.91938 C335.942621,18.1396446 336.482869,21.9084159 335.451807,26.1867675 C333.001269,25.5250208 330.681379,24.9305104 328.389738,24.2333762 C328.114317,24.1484461 327.824772,23.5008544 327.845959,23.1328242 C328.001324,20.4752212 326.821959,18.5784499 324.608,17.276189 C322.535557,16.0093762 320.137929,15.3794382 317.71189,15.4643478 C315.448497,15.5563554 313.68651,16.7347599 313.121545,18.5784499 C312.556579,20.4221399 313.188634,22.0818147 315.346097,23.3946919 C318.389848,25.2454594 321.536,26.9334442 324.629186,28.7028204 C325.628469,29.2760983 326.634814,29.8458374 327.584662,30.4721966 C334.837407,35.3981399 334.350124,45.5968242 326.666593,49.9141021 C323.463945,51.715327 320.031779,52.0833573 316.468966,51.4746919 C311.299531,50.5900038 306.440828,48.9798715 302.800331,44.9315388 C299.777766,41.5661853 298.979752,37.6417089 300.257986,33.0731796 L307.934455,35.1893535 Z" id="Path"></path>
                    <path d="M26.8570483,144.830518 C25.7624276,147.134246 24.8231724,149.236265 23.7497379,151.271047 C23.5696552,151.624922 22.7681103,151.904484 22.3373241,151.805399 C19.9150345,151.239198 17.7999448,151.94341 16.482869,153.854336 C15.1128276,155.846654 14.1912276,158.168076 13.2484414,160.422261 C12.9624276,161.10524 13.1319172,162.071319 13.3225931,162.849845 C14.1312,166.179811 17.6904828,167.269747 20.0033103,164.760771 C22.6445241,161.901459 25.0209103,158.790896 27.5244138,155.80065 C28.2306207,154.958427 28.9686069,154.148053 29.696,153.323524 C36.4049655,145.715206 46.7968,151.005641 48.7635862,157.923902 C49.5347097,160.51625 49.6078031,163.266905 48.9754483,165.896711 C47.9856963,170.144698 45.9664132,174.082702 43.0962759,177.362268 C39.1238621,181.856484 33.897931,183.307372 28.7143724,181.336287 C28.361269,181.205353 28.0364138,181.010722 27.5173517,180.759471 L30.9106759,173.575803 C31.5815724,173.681966 32.1783172,173.731509 32.7503448,173.876597 C34.5500089,174.371313 36.4758546,173.849859 37.782069,172.514178 C40.4507864,169.996803 42.0492174,166.545822 42.2452966,162.878155 C42.3724138,160.868144 41.4366897,159.371251 39.625269,158.493641 C37.8138483,157.61603 36.2319448,158.118533 35.0066759,159.502185 C32.7185655,162.089013 30.5646345,164.810314 28.3365517,167.439607 C27.3831724,168.572008 26.4368552,169.722102 25.4057931,170.783728 C19.8797241,176.445732 10.8155586,174.980688 7.23508966,167.853641 C5.56137931,164.516597 5.55784828,161.080469 6.58891034,157.591259 C8.25202759,151.957565 11.0980414,147.194405 16.6382345,144.593422 C19.9574069,143.032832 23.3048276,143.319471 26.8570483,144.830518 Z" id="Path"></path>
                    <path d="M249.901903,0.276022684 L279.2448,1.59597732 L279.2448,8.75487335 L257.850262,7.83833648 C257.709021,10.5525595 257.539531,13.1146163 257.497159,15.676673 C257.497159,15.9491569 258.302234,16.4445822 258.754207,16.4693535 C264.181407,16.7524537 269.608607,16.9824726 275.039338,17.1947977 C277.157959,17.2797278 277.157959,17.247879 276.999062,19.463138 C276.893131,21.0414216 276.818979,22.6197051 276.727172,24.2864575 L257.129931,23.4442344 C256.967503,27.0112968 256.815669,30.3872665 256.653241,33.9224802 L267.154538,34.3895955 C270.664386,34.5453006 274.174234,34.7434707 277.684083,34.839017 C278.877572,34.8744045 279.160055,35.3839849 279.054124,36.4809981 C278.877572,38.2822231 278.817545,40.0905255 278.701021,42.1713119 L248.111669,40.8230473 C248.711945,27.2908582 249.291034,13.917913 249.901903,0.276022684 Z" id="Path"></path>
                    <path d="M134.253462,71.7977467 C131.329766,73.9705406 128.720331,75.9734745 126.01909,77.8419357 C125.581241,78.1462684 124.670234,77.9870246 124.059366,77.7888544 C118.056607,75.8460794 112.099752,73.8466843 106.12171,71.8720605 C105.768607,71.7517429 105.387255,71.6880454 104.772855,71.5181853 C104.522152,73.379569 104.186703,75.1524839 104.098428,76.9324764 C104.070179,77.5411418 104.592772,78.2347372 104.99531,78.7903214 C107.251641,81.8973459 109.546814,84.9725217 111.965572,88.2494064 L105.298979,93.2461248 L81.1890759,60.5374367 L87.8592,55.5584121 L97.8838069,69.1295274 C98.1309793,67.377845 98.3393103,66.0649679 98.4946759,64.7450132 C99.1832276,58.9096106 99.843531,53.0671304 100.549738,47.2317278 C100.609766,46.7256862 100.779255,46.0639395 101.13589,45.7879168 C103.773572,43.7495955 106.474814,41.7926654 109.455007,39.5880227 C108.215614,47.585603 107.036248,55.2080756 105.832166,62.9933308 L134.253462,71.7977467 Z" id="Path"></path>
                    <path d="M76.0902621,121.825089 C74.4801103,124.181898 73.0500414,126.393618 71.471669,128.495637 C71.1785931,128.881361 70.2322759,129.058299 69.6884966,128.923826 C67.6687448,128.43194 65.6843034,127.791425 63.7033931,127.15445 C62.8630069,126.881966 62.3545379,126.988129 61.8142897,127.809119 C59.5544276,131.252325 57.2239448,134.645989 54.8546207,138.014881 C54.2861241,138.828794 54.2508138,139.387917 54.9005241,140.17352 C56.2635034,141.826117 57.552331,143.538873 58.7846621,145.294095 C59.0530207,145.679819 59.1801379,146.486654 58.9612138,146.836991 C57.5876414,149.013323 56.0940138,151.115342 54.5050483,153.440302 C52.6477241,150.910095 50.896331,148.542669 49.1696552,146.15755 C42.8137931,137.399138 36.4897103,128.623032 30.102069,119.889391 C29.3428966,118.848998 29.180469,118.137709 30.0385103,117.058389 C31.4262069,115.289013 32.566731,113.332083 33.9226483,111.530858 C34.2192552,111.134518 35.0278621,110.770026 35.4692414,110.886805 C48.7506391,114.404325 62.0214437,117.959592 75.2816552,121.552605 C75.4688,121.59507 75.6665379,121.68 76.0902621,121.825089 Z M40.1090207,120.108794 L39.8936276,120.462669 C43.0998069,124.666707 46.3024552,128.870745 49.6357517,133.248181 L55.4372414,124.691478 L40.1090207,120.108794 Z" id="Shape"></path>
                    <path d="M369.490979,57.9081437 C364.247393,66.3799168 354.127448,68.4253157 345.35989,62.862397 C338.707421,58.6406654 336.302786,52.3912287 337.644579,44.8324537 C338.802759,38.3105331 341.652303,32.4786692 346.758179,28.0693837 C351.864055,23.6600983 357.757352,22.5241588 364.106152,24.9906692 C369.28971,27.0042193 373.562262,30.1360151 375.479614,35.6812401 C376.697821,39.2022987 376.581297,43.2400151 375.1936,45.9436219 C372.9408,44.8819962 370.65269,43.8628355 368.449324,42.6879698 C368.075034,42.4897996 367.894952,41.5944953 367.9232,41.0353724 C368.16331,35.9183365 365.956414,32.8502382 360.984717,31.5621323 C358.004524,30.7906843 355.391559,31.7319924 353.216441,33.6853837 C348.979946,37.4524275 346.329458,42.691626 345.801269,48.342896 C345.204524,54.1146011 349.604193,58.7008242 355.140855,58.4884991 C357.541959,58.3964915 359.434593,57.1933157 360.942345,55.4416333 C361.758014,54.4932476 362.421848,54.4649376 363.463503,55.016983 C365.39851,56.0467599 367.4112,56.9208318 369.490979,57.9081437 Z" id="Path"></path>
                    <path d="M85.6240552,92.4392892 L91.7115586,87.0710019 C95.2425931,90.9636295 97.0999172,98.9399773 93.4523586,105.079713 C89.6141241,111.534397 84.0915862,115.533187 76.1502897,114.906828 C72.3226483,114.606034 68.9469793,113.041905 65.942069,110.720484 C60.6667034,106.643841 56.2564414,101.901913 54.9499586,95.043811 C54.3638069,91.9721739 54.4061793,88.8545331 55.7373793,85.9810662 C58.9153103,79.1548129 63.9364414,74.5438185 71.6694069,73.8396068 C75.3381517,73.5069641 78.8126897,74.6358261 81.9870897,77.2261928 L76.288,83.2420718 C75.9737379,83.1146767 75.7195034,83.0368242 75.4899862,82.9165066 C72.1284414,81.1471304 68.9540414,81.2922193 66.0409379,83.8648922 C62.7606069,86.7595917 61.750731,89.9833951 63.3291034,93.9255652 C65.6136828,99.6406503 69.7520552,103.766836 75.3769931,106.155493 C78.4489931,107.457754 81.6551724,107.192348 84.3670069,104.906314 C87.9404138,101.873603 88.6289655,98.3773157 86.5103448,94.1485066 C86.2561103,93.6601588 86.0018759,93.1753497 85.6240552,92.4392892 Z" id="Path"></path>
                    <path d="M113.120221,38.0274329 C115.846179,36.6119319 118.243752,35.2955161 120.711945,34.1348053 C121.065048,33.9755614 121.894841,34.4886805 122.286786,34.9027146 C127.332634,40.2108431 132.332579,45.5189716 137.350179,50.8271002 C139.130353,52.7886683 141.047861,54.6204916 143.08811,56.3086276 C142.487834,53.3195614 141.887559,50.3304953 141.287283,47.3414291 C139.919595,40.5658979 138.546023,33.7880076 137.166566,27.007758 C136.965297,26.0275236 137.141848,25.4117807 138.162317,24.9375879 C140.280938,23.9467372 142.332469,22.7860265 144.595862,21.6005444 C145.178483,25.2383819 145.739917,28.6391229 146.258979,32.0469414 C147.653738,41.1733837 148.984938,50.3069036 150.422069,59.4227297 C151.128276,64.0231078 151.227145,63.9947977 147.102897,66.1711304 C144.062676,67.7706465 144.094455,67.7387977 141.590952,65.3182911 C132.737471,56.7663062 123.869867,48.2272968 114.988138,39.7012628 C114.476138,39.2306087 113.932359,38.7634934 113.120221,38.0274329 Z" id="Path"></path>
                    <path d="M490.46069,151.713391 L460.160883,165.687924 L468.607117,184.181444 L462.007614,187.2 L450.002097,161.013233 L486.908469,144.027221 C488.10549,146.621127 489.246014,149.087637 490.46069,151.713391 Z" id="Path"></path>
                    <path d="M209.874097,3.00440076 L218.270897,2.12325142 C219.471448,13.2066238 220.661407,24.1979887 221.872552,35.3592136 L241.8688,33.2359622 L242.642097,40.398397 L214.238455,43.455879 C212.783669,29.9626163 211.343007,16.6073648 209.874097,3.00440076 Z" id="Path"></path>
                    <path d="M189.164579,41.7572779 L208.765352,36.8525671 L210.513214,43.8734518 L182.752221,50.8377164 C179.457766,37.6735577 176.198621,24.650949 172.865324,11.3983214 L181.018483,9.27506994 C183.751503,20.1248847 186.438621,30.8402268 189.164579,41.7572779 Z" id="Path"></path>
                    <path d="M152.244083,19.1517278 L160.174786,16.1897921 C164.892248,28.865603 169.581462,41.4529452 174.344828,54.2526125 L166.438841,57.2534745 L152.244083,19.1517278 Z" id="Path"></path>
                    <path d="M9.33605517,240.150352 C4.07128276,240.150352 0.27542069,236.385119 0.278951724,231.144227 C0.208503771,227.895248 1.89548858,224.861753 4.68973752,223.212858 C7.48398645,221.563964 10.9492238,221.557118 13.7499375,223.19496 C16.5506512,224.832801 18.2495561,227.859607 18.1918897,231.108839 C18.1883586,236.303728 14.4313379,240.136197 9.33605517,240.150352 Z" id="Path"></path>
                    <path d="M500.679503,233.621353 C500.679503,238.756083 496.88011,242.549626 491.728331,242.556703 C486.643641,242.556703 482.777159,238.731312 482.717131,233.617815 C482.657103,228.504318 486.601269,224.608151 491.813076,224.625785 C496.957793,224.64 500.679503,228.419388 500.679503,233.621353 Z" id="Path"></path>
                </g>
                <path d="M169.387255,238.158034 C169.690849,238.172689 169.992923,238.106771 170.262952,237.966941 C170.676083,237.722767 171.071559,236.625754 170.866759,236.32496 C170.421848,235.67383 169.616772,235.238563 168.899972,234.824529 C168.518621,234.605127 167.985434,234.675902 167.56171,234.50958 L210.640331,180.589611 L294.219917,180.589611 L324.939917,203.7649 L341.631117,238.865784 L345.868359,298.430064 L310.561545,337.596975 C310.286124,337.2431 309.699972,336.800756 309.332745,336.800756 C309.298826,336.795331 309.264264,336.795331 309.230345,336.800756 C307.757903,337.21479 307.260028,338.389656 307.84971,339.660068 L283.838676,358.029732 L210.633269,352.979932 L202.427145,341.655924 C202.963862,340.898631 203.786593,340.059947 203.765407,339.274344 C203.744221,338.488741 202.942676,337.596975 202.328276,336.889225 C202.308881,336.882198 202.287643,336.882198 202.268248,336.889225 C201.735742,337.001422 201.245954,337.262804 200.855834,337.642979 C200.612193,337.943773 200.372083,338.251645 200.131972,338.555977 L152.395917,273.637565 L166.347034,237.651992 C166.989683,237.782926 167.632331,237.91386 168.274979,238.034178 C168.640992,238.111132 169.013356,238.153781 169.387255,238.161573 M256.529655,65.2298223 L255.823448,65.2298223 C254.234483,67.1619811 252.468966,69.0056711 251.056552,71.0546087 C248.231724,75.1666389 245.463393,79.3317505 242.8928,83.6101021 C240.851862,87.0037656 239.047503,90.5531342 237.310234,94.1201966 C235.809545,97.1989112 234.506593,100.38025 233.196579,103.550972 C232.356193,105.585754 231.607614,107.663002 230.954372,109.761482 C230.841379,110.115357 231.28629,110.92927 231.681766,111.15575 C233.039493,111.984184 234.479701,112.668503 235.979034,113.197611 C238.987476,114.153074 241.490979,115.925989 243.824993,117.90769 C248.983834,122.295743 252.363034,127.791425 253.005683,134.638911 C253.044524,135.052945 253.072772,135.470518 253.104552,135.884552 L243.722593,135.884552 L142.321876,210.021414 L136.979421,223.670382 C136.029572,223.24927 135.076193,222.831698 134.112221,222.442435 C129.779641,220.704907 125.944938,218.238397 123.300193,214.338692 C121.926621,212.325142 121.114483,209.908174 119.924524,207.724764 C118.533228,205.266277 117.7657,202.50297 117.689379,199.677641 C117.654069,197.582699 117.689379,195.487758 117.689379,193.435282 C116.630069,193.435282 115.733186,193.406972 114.931641,193.406972 C114.458483,193.406972 114.013572,193.406972 113.568662,193.449437 C109.331421,193.743153 105.094179,194.040408 100.856938,194.43321 C97.9473655,194.705694 95.0413241,195.05603 92.16,195.526684 C89.1656828,196.015032 86.1572414,196.556461 83.2300138,197.313754 C80.0273655,198.138284 76.8953379,199.238836 73.728,200.204915 C72.2452566,200.719123 70.736607,201.154989 69.2082759,201.510715 C67.6334345,201.818586 67.1355586,202.752817 68.0712828,204.069233 C68.7386483,205.007002 69.4060138,205.94831 70.1016276,206.868386 C74.1199448,212.176514 77.7427862,217.838518 82.2731034,222.679531 C88.0428138,228.822805 94.5575724,234.268945 100.729821,240.019418 C100.986365,240.310712 101.343331,240.49401 101.729103,240.532537 C102.223448,240.532537 102.625986,240.100809 103.141517,239.591229 C106.111117,236.643448 109.070124,233.663819 112.286897,231.002677 C113.794648,229.757036 115.817931,229.028053 117.714097,228.387539 C120.063244,227.630582 122.458746,227.026556 124.885628,226.579236 C125.365003,226.48648 125.852186,226.440262 126.340414,226.441225 C128.233048,226.441225 130.062124,227.092355 131.894731,227.594858 C132.954041,227.888575 134.034538,228.153981 135.104441,228.426465 L127.918786,246.789051 L172.314483,353.715992 L181.993048,362.562873 C180.665379,364.261474 179.32594,365.950639 177.974731,367.630367 C173.649214,372.995115 168.165517,376.24369 161.117572,376.35693 C159.65337,376.380522 158.186814,376.392318 156.717903,376.392318 C154.888828,376.392318 153.059752,376.376983 151.230676,376.346314 C150.357713,376.296354 149.494281,376.138267 148.660083,375.87566 C147.445407,375.543017 146.251917,375.118367 145.086676,374.746798 C144.535834,375.925202 144.027366,376.714344 143.780193,377.5778 C142.60789,381.781837 141.255503,385.957565 140.446897,390.235917 C139.412303,395.724522 138.744938,401.290979 138.109352,406.843282 C137.809214,409.440726 137.975172,412.09479 137.904552,414.720544 C137.823338,417.650631 137.742124,420.584257 137.597352,423.514344 C137.540855,424.611357 137.99989,425.096166 138.783779,425.096166 C138.966781,425.09434 139.149069,425.072987 139.327559,425.032469 C141.093076,424.643206 142.826814,424.119471 144.571145,423.616968 C146.068303,423.192318 147.572524,422.785361 149.044966,422.275781 C150.602152,421.741429 152.113434,421.069066 153.663559,420.506405 C155.111283,419.975592 156.626097,419.604023 158.034979,418.984741 C160.093572,418.07882 162.070952,416.988885 164.101297,416.019267 C166.788414,414.738238 169.567338,413.62707 172.173241,412.204491 C175.351172,410.470503 178.426703,408.52065 181.509297,406.602647 C182.822841,405.788733 184.044579,404.83327 185.142731,404.047667 C183.334841,400.661081 181.360993,397.656681 180.103945,394.379796 C179.200915,391.879504 178.696851,389.252166 178.610317,386.594541 C178.292524,380.415879 179.408331,374.750336 182.946428,369.608529 C183.822124,368.341656 184.687228,367.067705 185.541738,365.786677 L195.986538,375.341308 L319.269076,375.341308 L327.994262,368.681376 C329.738593,371.200968 331.309903,373.801951 332.192662,376.792197 C333.439117,381.003312 333.061297,385.331206 332.619917,389.552938 C332.337434,392.228234 331.182786,394.861066 330.088166,397.37358 C329.134786,399.564068 327.711779,401.552847 326.341738,403.89904 C329.76331,406.064756 333.078952,408.301248 336.528772,410.304181 C339.561931,412.073558 342.690428,413.673074 345.868359,415.145195 C350.645848,417.360454 355.426869,419.600484 360.3456,421.447713 C364.250924,422.916295 368.36811,423.815138 372.39349,424.954616 C372.706968,425.05379 373.032456,425.109744 373.360993,425.120938 C374.208441,425.120938 374.505048,424.551198 374.487393,423.280786 C374.392055,416.999501 374.561545,410.707599 373.541076,404.468779 C373.219752,402.504771 373.240938,400.484144 372.923145,398.516597 C372.460579,395.646669 371.863834,392.787357 371.252966,389.945739 C370.465545,386.371599 369.646345,382.804537 368.700028,379.272862 C368.272772,377.666268 367.506538,376.151682 366.856828,374.509701 C363.869572,375.712877 360.854069,376.448938 357.767945,376.448938 C357.1158,376.449199 356.464066,376.416128 355.815283,376.349853 C355.093518,376.28094 354.36871,376.24905 353.643697,376.254306 C353.085793,376.254306 352.52789,376.254306 351.969986,376.279078 C351.412083,376.303849 350.850648,376.307388 350.292745,376.307388 C348.446014,376.307388 346.592221,376.162299 344.731366,375.405006 C342.418538,374.467236 340.141021,373.593164 338.149517,372.121043 C335.677793,370.312741 333.763972,368.037323 331.94549,365.66282 L337.365628,361.52248 L377.873655,235.999395 L376.6272,228.341535 C378.057269,228.07259 379.512055,227.870881 380.807945,227.279909 C382.105153,226.704502 383.510133,226.413722 384.928662,226.42707 C387.704055,226.42707 390.398234,227.400227 393.088883,227.966427 C395.246345,228.419388 397.241379,229.863198 399.19051,231.052219 C402.721545,233.217936 406.15371,235.610132 408.261738,239.315206 C408.749021,240.178662 409.264552,240.514843 409.794207,240.514843 C410.323304,240.463268 410.820223,240.236675 411.206621,239.87079 C414.423393,237.276885 417.75669,234.774987 420.676855,231.866132 C425.12949,227.435614 429.504441,222.874163 433.483917,218.029611 C437.265655,213.429233 440.545986,208.41482 443.988745,203.559652 C444.694952,202.54403 444.437186,201.850435 443.144828,201.549641 C441.340469,201.124991 439.557297,200.604794 437.770593,200.109369 C436.49589,199.755493 435.224717,199.376847 433.953545,199.001739 C431.789021,198.357686 429.649214,197.607471 427.456441,197.083735 C424.861131,196.460915 422.226979,195.979645 419.589297,195.537301 C415.800497,194.900325 412.011697,194.075796 408.191117,193.835161 C406.347917,193.714843 404.497655,193.679456 402.6368,193.679456 C399.811972,193.679456 396.934179,193.764386 394.014014,193.764386 C393.870746,193.98871 393.785774,194.2454 393.766841,194.511062 C394.103363,198.037354 393.731157,201.595475 392.672221,204.975153 C392.115697,206.860384 391.407156,208.697149 390.5536,210.467297 C387.375669,216.837051 382.315697,220.885384 375.776221,223.167879 L374.787531,217.098919 L277.737048,135.888091 L258.56,135.888091 C258.736552,132.593512 259.199117,129.330783 261.067034,126.213142 C263.432828,122.260355 266.144662,118.848998 269.894621,116.240938 C272.422841,114.471561 275.060524,112.960514 278.090152,112.143062 C281.045628,111.346843 281.215117,110.639093 279.901572,107.701928 C279.318952,106.39259 278.990566,104.970011 278.489159,103.618208 C277.57109,101.141081 276.723641,98.6073346 275.664331,96.186828 C274.492028,93.557535 273.129048,91.0096333 271.762538,88.4758866 C270.155917,85.4891796 268.637572,82.4352363 266.755531,79.6290057 C263.485793,74.7419887 259.972414,70.021293 256.557903,65.2298223" id="Shape" fill="#0D0094"></path>
                <path d="M417.163476,263.226556 C417.061076,260.452174 416.104166,257.68487 415.3344,254.967108 C414.68469,252.627992 413.766621,250.36673 412.975669,248.070079 C411.838676,244.764885 409.797738,242.022352 407.728552,239.255047 C404.441159,234.849301 400.196855,231.653807 395.327559,229.321769 C391.380068,227.406634 386.97842,226.630986 382.615834,227.081739 C380.581959,227.294064 378.618703,228.143365 376.613076,228.681255 C374.607448,229.219146 372.481766,229.71811 370.437297,230.309081 C368.700028,230.808045 366.987476,231.406095 365.267862,231.972295 C363.911945,232.418178 362.573683,232.924219 361.203641,233.324098 C358.0928,234.230019 354.957241,235.051009 351.849931,235.974624 C350.049103,236.508975 348.294179,237.184877 346.507476,237.775849 C345.045628,238.260658 343.594372,238.90825 342.093683,239.067493 C341.560497,239.124113 340.607117,238.048333 340.367007,237.298117 C340.013903,236.236491 340.144552,235.125323 341.638179,234.672363 C343.7568,234.031849 345.815393,233.164854 347.923421,232.474798 C349.438234,231.979372 350.998952,231.643191 352.513766,231.190231 C353.594262,230.868204 354.667697,230.514329 355.716414,230.100295 C357.263007,229.488091 358.763697,228.744953 360.306759,228.178752 C361.966345,227.580703 363.685959,227.148975 365.359669,226.593391 C367.033379,226.037807 368.752993,225.397293 370.451421,224.799244 C371.789683,224.325051 373.170317,223.942866 374.466207,223.383743 C376.722538,222.385815 378.922372,221.260491 381.153986,220.198866 C385.973848,217.912832 388.653903,213.581399 390.846676,209.129648 C392.25909,206.298647 392.735779,202.88375 393.163034,199.667025 C393.578368,196.464325 393.676538,193.228302 393.45611,190.006231 C393.286621,187.408786 392.629848,184.811342 391.895393,182.298828 C391.179439,179.811147 390.250872,177.389937 389.12,175.062079 C387.562814,171.905512 385.825545,168.826798 383.982345,165.825936 C379.173076,157.991138 372.46411,151.777089 366.034097,145.379025 C362.56309,141.925202 358.548303,139.00927 354.628855,136.029641 C350.208,132.681981 345.734179,129.383864 341.069683,126.393618 C336.885407,123.711244 332.432772,121.439365 328.064883,119.050707 C326.015898,117.881227 323.902091,116.829693 321.733738,115.901217 C319.346759,114.92806 316.850317,114.213233 314.385655,113.424091 C312.214069,112.741112 310.053076,111.973202 307.828524,111.516703 C304.452855,110.808953 301.045407,110.122435 297.620303,109.888877 C293.804207,109.605635 289.970984,109.648254 286.162097,110.016272 C283.619752,110.27814 281.162152,111.392847 278.672772,112.157217 C277.316855,112.57479 275.957407,113.002979 274.640331,113.530253 C273.74517,113.890129 272.892526,114.34824 272.097986,114.896212 C268.242097,117.550276 264.386207,120.20434 262.21109,124.606548 C261.211807,126.64487 259.739366,128.499176 259.100248,130.640121 C258.461131,132.781066 258.528221,135.162647 258.478786,137.438064 C258.206897,149.565369 257.998566,161.692673 257.772579,173.819977 C257.737269,175.614125 257.274703,175.868915 254.898317,175.801679 C253.288166,175.755675 253.228138,174.842677 253.238731,173.554571 C253.266979,169.969815 253.129269,166.388597 253.09749,162.803841 C253.058648,158.500718 253.150455,154.190518 253.026869,149.890934 C252.906814,145.50642 252.603145,141.132522 252.355972,136.755085 C252.239448,134.660144 252.486621,132.423652 251.826317,130.509187 C250.968276,128.007289 249.464055,125.7071 248.076359,123.431682 C246.393302,120.612291 244.032101,118.260529 241.208497,116.591274 C238.948634,115.260703 236.822952,113.562102 234.400662,112.698647 C230.6048,111.329149 226.819531,109.750866 222.624662,109.754405 C216.448883,109.754405 210.266041,109.704191 204.231503,111.215909 C200.801883,112.066399 197.426075,113.121651 194.122152,114.376015 C189.323476,116.219705 184.510676,118.10586 179.920331,120.409588 C175.983228,122.38775 172.250924,124.82949 168.621021,127.327849 C163.561048,130.795826 158.522262,134.323962 153.748303,138.170586 C149.393835,141.715535 145.219612,145.477241 141.241379,149.441512 C137.504145,153.090288 133.967878,156.940249 130.648276,160.974306 C126.476142,166.113273 123.113334,171.861875 120.676634,178.020476 C119.052359,182.082964 117.583448,186.240998 117.498703,190.473346 C117.421021,194.879093 116.704221,199.475932 118.558014,203.814442 C119.564359,206.157096 119.970428,208.793467 121.195697,210.99811 C123.201324,214.632408 125.57771,218.075614 129.557186,219.947614 C131.467476,220.853535 133.240055,222.046095 135.13269,222.99448 C136.380407,223.560095 137.656863,224.059745 138.9568,224.491372 C140.690538,225.135425 142.420745,225.783017 144.172138,226.377527 C145.298538,226.759713 146.463779,227.018042 147.597241,227.386072 C149.278014,227.927501 150.944662,228.511395 152.614841,229.088212 C154.285021,229.665028 155.863393,230.252461 157.501793,230.797429 C159.069572,231.317626 160.679724,231.752892 162.233379,232.287244 C163.871779,232.842828 165.488993,233.469187 167.1168,234.05662 C167.778405,234.240958 168.422397,234.483724 169.041214,234.782064 C169.697986,235.16425 170.693738,235.677369 170.750234,236.197565 C170.827917,236.993784 170.333572,237.966941 169.81451,238.642843 C169.637959,238.87994 168.645738,238.575607 168.048993,238.416363 C166.396469,237.974019 164.765131,237.453822 163.105545,237.000862 C160.958676,236.416968 158.797683,235.896771 156.654345,235.3058 C154.511007,234.714828 152.325297,234.106163 150.181959,233.426722 C148.550621,232.910064 146.961655,232.255395 145.344441,231.692733 C143.932028,231.204386 142.554924,230.659418 141.1072,230.302004 C137.509076,229.406699 133.80149,228.854654 130.312828,227.64794 C128.679144,227.088143 126.950948,226.858416 125.228138,226.972038 C121.665324,227.156053 118.321434,228.139826 115.058759,229.587176 C110.4896,231.614881 107.120993,235.107629 103.851255,238.664076 C100.842814,241.937422 98.4840828,245.702654 97.2552828,250.044703 C96.1182897,254.067085 95.0448552,258.107161 94.0349793,262.16493 C93.6818759,263.506117 93.6465655,264.918079 93.4664828,266.298193 L93.4664828,281.160953 C93.5794759,281.362662 93.7701517,281.553754 93.7913379,281.766079 C94.1903448,285.432227 94.4622345,289.116068 94.9848276,292.76806 C95.337931,295.245187 95.9911724,297.662155 96.5808552,300.093278 C97.1493517,302.428854 97.7778759,304.746737 98.4275862,307.061081 C99.229131,309.913316 100.016552,312.776166 100.924028,315.593013 C101.803255,318.314314 102.781352,321.003766 103.808883,323.671985 C104.836414,326.340204 105.899255,328.980113 107.064497,331.57048 C108.561655,334.907524 110.041159,338.2658 111.767834,341.478987 C114.592662,346.705724 117.456331,351.911229 121.555862,356.30282 C124.310069,359.250601 126.802979,362.474405 129.747862,365.213399 C133.09763,368.400792 136.924489,371.04318 141.089545,373.044658 C146.273103,375.475781 151.61909,376.66834 157.332303,376.296771 C158.624662,376.211841 159.924083,376.247229 161.216441,376.296771 C164.793379,376.420628 167.777103,374.753875 170.827917,373.221595 C174.991007,371.130193 177.681655,367.61975 180.248717,363.893444 C182.159007,361.12614 184.454179,358.631319 186.491586,355.948945 C189.171641,352.410193 191.731641,348.811282 194.408166,345.290223 C196.731586,342.23628 199.150345,339.253112 201.586759,336.160242 C202.109352,336.627357 202.40949,337.01662 202.804966,337.221868 C204.506924,338.138405 204.167945,339.320348 203.288717,340.573066 C201.106538,343.665936 198.878455,346.726957 196.728055,349.841059 C194.415228,353.18518 192.2048,356.600076 189.881379,359.93358 C187.981683,362.669036 185.810097,365.241709 184.076359,368.072711 C182.381462,370.850631 181.039669,373.855032 179.627255,376.802813 C177.607503,381.006851 178.779807,385.493989 178.808055,389.832499 C178.808055,391.782352 179.998014,393.792363 180.909021,395.650208 C182.300248,398.48121 183.642041,401.428991 185.499366,403.962737 C188.837518,408.548419 193.13491,412.347955 198.091034,415.095652 C201.336055,416.896877 204.584607,418.726412 207.956745,420.258692 C210.364064,421.289234 212.852567,422.117786 215.396634,422.735819 C219.735099,423.887093 224.09828,424.940461 228.486179,425.895924 C230.424717,426.313497 232.448,426.338268 234.425379,426.603675 C237.250207,426.95755 240.075034,427.357429 242.899862,427.739614 L268.32331,427.739614 C268.51231,427.607036 268.722472,427.507709 268.944772,427.445898 C272.82891,427.028325 276.75189,426.738147 280.625434,426.189641 C283.552662,425.775607 286.441048,425.08555 289.329434,424.420265 C291.305022,423.987575 293.257771,423.456097 295.180359,422.827826 C298.128772,421.847592 301.09131,420.867357 303.937324,419.642949 C307.075397,418.330881 310.119325,416.803225 313.047393,415.070881 C315.706262,413.443055 318.040276,411.284416 320.586152,409.451342 C324.216055,406.84682 326.380579,403.032045 328.707531,399.418979 C329.936331,397.518669 330.243531,395.04862 331.207503,392.946601 C333.057766,388.901807 332.418648,384.708386 332.305655,380.511425 C332.182069,375.911047 329.855117,372.290904 327.40811,368.713225 C324.961103,365.135546 322.443476,361.63572 319.968221,358.096968 C317.809582,355.015894 315.660359,351.925384 313.520552,348.825437 C311.550234,345.973202 309.615228,343.096197 307.620193,340.261656 C306.832772,339.14341 306.451421,338.223335 308.022731,337.455425 C308.467641,337.236023 308.785434,336.747675 309.3504,336.22394 C310.621572,337.699599 311.889214,339.054941 313.008552,340.50583 C315.091862,343.22713 317.058648,346.040439 319.120772,348.775894 C322.002097,352.597747 324.865766,356.426677 327.845959,360.170677 C331.119228,364.286246 333.778097,368.98217 338.167172,372.067962 C339.996248,373.356068 342.280828,373.982427 344.30411,375.012204 C349.392331,377.599032 354.819531,376.024287 360.080772,376.240151 C362.054621,376.318004 364.084966,375.206836 366.083531,374.591093 C373.975393,372.142276 379.974621,366.933233 385.504221,361.094291 C390.918392,355.343122 395.499375,348.858071 399.112828,341.829323 C400.987807,338.226873 402.901628,334.631501 404.522372,330.912272 C405.998345,327.532764 407.103559,323.990473 408.364138,320.518957 C409.391669,317.687955 410.514538,314.874647 411.400828,311.997641 C412.325959,309.000318 413.028634,305.935758 413.7984,302.89597 C414.486952,300.178208 415.246124,297.474601 415.765186,294.728529 C416.386648,291.448106 417.11051,288.139372 417.205848,284.820023 C417.414179,277.611584 417.428303,270.406684 417.163476,263.226556 Z M158.426924,360.896121 C153.946041,359.629248 149.733517,357.782019 146.527338,354.370662 C144.216019,351.896957 142.185073,349.174407 140.471614,346.252764 C138.727283,343.273134 137.413738,340.013943 136.15669,336.783062 C135.097379,334.097149 134.500634,331.248454 133.557848,328.516537 C132.67509,325.950941 131.675807,323.417195 130.609434,320.918836 C129.504221,318.314314 128.430786,315.670866 127.032497,313.222049 C124.267697,308.37042 121.287503,303.639108 118.402648,298.854715 C115.397738,293.872151 112.205683,288.985134 109.4656,283.857482 C107.265766,279.741913 105.980469,275.261853 106.354759,270.452688 C106.499531,268.591304 106.386538,266.712227 106.492469,264.843766 C106.845572,258.541248 110.11531,253.795781 114.670345,249.772219 C114.942234,249.535123 115.422455,249.538662 116.248717,249.305104 C115.84971,250.104862 115.690814,250.448121 115.5072,250.777225 C113.59691,254.284129 111.269959,257.638866 109.91051,261.34394 C108.999503,263.821066 109.176055,266.790079 109.352607,269.507841 C109.50166,272.062069 110.033752,274.579227 110.930979,276.974609 C111.854633,279.351851 113.14636,281.568351 114.758621,283.542533 C117.848276,287.293611 121.365186,290.683735 124.490152,294.406503 C127.872883,298.437142 131.34389,302.464242 134.136938,306.898299 C136.001324,309.856696 136.813462,313.498072 137.957517,316.87758 C138.663724,319.000832 139.143945,321.223168 139.723034,323.399501 C139.793122,323.685269 139.847348,323.974711 139.885462,324.266495 C140.319779,327.451372 140.96949,330.63625 141.121324,333.852975 C141.297876,337.558049 142.378372,341.026026 143.797848,344.302911 C145.88469,349.119153 149.6064,352.696832 153.868359,355.740159 C156.947421,357.937724 160.379586,359.278911 163.952993,360.237913 C165.44309,360.64487 167.063834,360.563478 168.938814,360.733338 C166.534179,361.823274 161.368276,361.731267 158.426924,360.89966 L158.426924,360.896121 Z M278.008938,128.00375 C279.884556,126.868772 281.838658,125.869481 283.856331,125.013505 C285.974952,124.17482 288.252469,123.679395 290.462897,123.053036 C290.744763,122.971432 291.039455,122.94382 291.331531,122.971645 C293.880938,123.261822 296.462124,123.396295 298.958566,123.934185 C300.904166,124.355297 302.779145,125.19752 304.608221,126.014972 C306.606786,126.903198 308.654786,127.784348 310.452083,129.015834 C315.635641,132.554586 320.233048,136.801089 324.463228,141.443932 C330.297311,147.864123 336.84119,153.598377 343.968662,158.536106 C347.217214,160.779675 350.748248,162.619826 354.208662,164.551985 C359.692359,167.655471 365.080717,170.921739 369.565131,175.394722 C371.948579,177.769225 373.721159,180.639153 375.172414,183.749716 C377.245131,188.190851 377.82069,192.812461 377.414621,197.579161 C377.248662,199.511319 376.570703,201.401013 376.125793,203.308401 L375.529048,203.283629 C375.447834,202.434329 375.175945,201.539025 375.327779,200.742805 C376.139917,196.906798 375.483145,193.113255 374.074262,189.698359 C371.475421,183.39938 368.170372,177.38704 361.535559,174.354329 C357.940966,172.715887 354.176883,171.449013 350.511669,169.959198 C347.104221,168.572008 343.742676,167.068038 340.324634,165.712696 C336.224259,164.065941 332.472741,161.654726 329.268966,158.606881 C324.843252,154.502997 320.954055,149.853822 317.694234,144.770359 C314.586924,139.86211 311.338372,134.975093 306.564414,131.496499 C304.576441,130.045611 302.267145,128.976907 299.986097,128.021444 C297.981123,127.143144 295.868821,126.53508 293.704386,126.213142 C291.797628,125.965429 289.781407,126.237913 287.856993,126.542246 C285.680574,126.901317 283.531084,127.408532 281.423448,128.060371 C280.011034,128.485021 278.693959,129.228159 277.330979,129.829747 L276.942566,129.447561 C277.281545,128.955675 277.53931,128.276234 278.008938,128.00375 Z M294.103393,276.496877 C296.79051,280.608907 294.403531,285.343758 289.940303,286.433694 C289.054014,286.649558 288.104166,286.600015 287.182566,286.67079 C287.496828,287.516552 287.973517,288.341081 288.093572,289.215153 C288.446676,291.69228 287.546262,293.815531 285.505324,295.18149 C283.686841,296.391743 281.681214,297.414442 279.38251,295.949399 C278.2208,295.2098 277.581683,295.722919 277.662897,297.141958 C277.793545,299.470457 276.056276,301.522934 274.131862,302.655335 C271.889655,303.982367 270.049986,303.455093 268.051421,302.489013 C267.846621,302.386389 267.557076,302.308537 267.465269,302.135138 C266.074041,299.555388 265.657379,301.257527 265.099476,302.644718 C264.001324,305.376635 261.900359,306.137467 259.064938,306.12696 C256.229517,306.116234 254.622897,304.73966 253.510621,302.375773 C253.355255,302.04313 253.086897,301.583093 252.804414,301.537089 C252.521931,301.491085 252.098207,301.890964 251.949903,302.177603 C250.353876,305.228008 245.240938,305.610193 242.875145,303.051675 C241.791117,301.880348 240.678841,300.744408 240.978979,298.911335 C240.964122,298.531931 240.77347,298.181203 240.463448,297.962949 C240.293959,297.856786 239.813738,298.083267 239.566566,298.277898 C238.01291,299.484612 234.852634,299.721709 233.118897,298.720242 C230.936717,297.463985 229.347752,294.473739 229.746759,292.392953 C229.807911,292.168472 229.884603,291.948536 229.976276,291.734745 C230.149297,291.218087 230.329379,290.704968 230.488276,290.18831 C229.880938,290.163539 229.248883,290.025527 228.666262,290.135229 C226.028579,290.616499 223.722814,290.07507 222.176221,287.789036 C220.629628,285.503002 220.608441,283.107267 222.066759,280.711531 C222.404094,280.059599 222.705853,279.389789 222.970703,278.705059 C220.477793,279.129709 219.023007,278.092854 217.8048,276.539342 C215.770924,273.948975 216.321766,268.800091 219.542069,267.628764 C219.806897,267.533217 220.205903,267.10149 220.156469,266.981172 C220.01551,266.62418 219.75614,266.326753 219.422014,266.138949 C216.720772,264.896847 215.785048,262.766518 215.908634,259.875357 C216.014566,257.423002 217.797738,255.105119 220.60491,254.213353 C220.997054,254.038842 221.366919,253.817864 221.706593,253.555146 C221.498365,253.186241 221.243169,252.84603 220.947421,252.543062 C218.934731,250.971856 218.952386,246.459947 221.417048,244.209301 C222.741186,242.995509 224.160662,242.273603 226.025048,242.599168 C226.992552,242.769028 227.557517,242.411614 226.989021,241.303985 C225.79264,239.150391 226.123926,236.468551 227.808221,234.672363 C229.668968,232.560561 232.685733,231.910546 235.24811,233.069308 C236.282703,233.525807 236.660524,233.196703 236.621683,232.113845 C236.561655,229.197913 237.988193,227.343607 241.183779,226.097966 C243.154097,225.337134 245.473986,226.016575 247.186538,227.785951 C247.476083,228.086745 247.959834,228.192907 248.35531,228.391078 C248.540264,228.051005 248.696185,227.695864 248.821407,227.329452 C249.37931,225.223894 251.607393,223.472212 253.824883,223.397898 C255.526841,223.337739 257.26411,223.160802 258.591779,224.562147 C259.154774,225.120181 259.64265,225.749501 260.043034,226.434147 C260.922262,228.083206 261.600221,228.178752 262.712497,226.685399 C264.061352,224.873558 266.833214,223.949943 269.036579,224.562147 C271.123421,225.153119 273.386814,228.04428 273.457434,230.128605 C273.534298,230.501719 273.670192,230.860118 273.859972,231.190231 C274.17205,231.112231 274.469126,230.983097 274.7392,230.808045 C277.804138,227.977043 282.631062,230.415244 283.824552,233.079924 C284.5696,234.73606 285.138097,236.179871 283.958731,237.82893 C283.775117,238.080181 283.958731,238.586223 283.958731,238.971947 C284.311834,238.971947 284.760276,239.081648 285.053352,238.925943 C287.77931,237.485671 293.450152,240.815637 292.775724,244.343773 C292.514428,245.734503 293.128828,247.295093 291.758786,248.452265 C291.659917,248.540733 292.11189,249.694367 292.408497,249.761603 C295.642924,250.430427 297.189517,252.645686 297.952221,255.607622 C298.35829,257.192983 296.681048,260.239849 294.823724,261.510261 C294.457377,261.82784 294.125933,262.183735 293.835034,262.571887 C294.204697,262.785305 294.590813,262.968727 294.989683,263.120393 C296.92469,263.679516 297.842759,265.300265 298.266483,266.952862 C299.000938,269.836945 297.800386,273.322616 294.548303,274.331161 C293.259476,274.762888 293.601986,275.732507 294.103393,276.496877 L294.103393,276.496877 Z M234.919724,183.781565 C239.054566,184.103592 243.171752,184.712257 247.313655,184.921043 C251.625252,185.175802 255.947086,185.207693 260.261959,185.01659 C265.862179,184.726412 271.434152,183.838185 277.034372,183.62586 C281.412855,183.456 285.339366,185.115675 288.976331,187.684809 C291.29269,189.316174 292.2496,191.740219 293.637297,193.927168 C294.029241,194.542911 293.792662,195.558533 293.873876,196.87141 C292.157793,194.564144 290.830124,192.692144 289.407117,190.897996 C287.722814,188.774745 285.395862,187.667115 282.818207,187.005369 C281.691807,186.71873 280.530097,186.000363 279.467255,186.134836 C276.621241,186.488711 273.8176,187.17169 270.992772,187.805127 C269.14251,188.222699 267.338152,188.834904 265.48789,189.263093 C263.196248,189.793905 260.897545,190.409648 258.567062,190.650284 C256.346041,190.880302 254.082648,190.703365 251.83691,190.650284 C251.137427,190.617431 250.443601,190.508265 249.767724,190.324718 C247.423117,189.747902 245.089103,189.114465 242.744497,188.530571 C239.390014,187.691887 236.000221,186.102987 232.673986,186.219766 C226.448772,186.439168 221.060414,188.972915 218.006069,194.981716 C217.893076,195.208197 217.624717,195.356824 217.426979,195.540839 C217.073876,192.92924 218.440386,191.14217 219.969324,189.46834 C224.001766,185.076749 229.065269,183.307372 234.919724,183.774488 L234.919724,183.781565 Z M162.046234,168.971887 C158.44811,170.387388 154.729931,171.512711 151.230676,173.133459 C148.635366,174.336635 145.994152,175.787524 143.935559,177.733837 C140.564878,180.905423 138.019218,184.854962 136.520386,189.238321 C135.277462,192.812461 134.338207,196.315826 134.578317,200.095214 C134.652469,201.312544 135.107972,202.505104 135.401048,203.771977 C133.112938,202.448484 133.123531,200.070442 132.886952,197.993195 C132.428135,194.328858 132.733543,190.608961 133.783834,187.069066 C135.050551,182.942305 137.253821,179.165668 140.22091,176.035236 C144.811255,171.158836 150.436193,167.797021 156.205903,164.580295 C164.359062,160.029459 172.120276,154.912423 178.836303,148.302034 C184.390621,142.848817 189.973186,137.416832 195.704055,132.151168 C198.616601,129.494486 201.975965,127.376216 205.626262,125.894654 C209.157297,124.436688 212.642428,123.820945 216.381793,123.481225 C218.548697,123.240847 220.739123,123.321931 222.882428,123.72186 C226.645327,124.528964 230.147179,126.266078 233.069462,128.775198 C233.037683,128.94152 233.002372,129.104302 232.967062,129.270624 C232.497434,129.291856 231.907752,129.511259 231.579366,129.302473 C228.560331,127.313694 224.986924,127.119062 221.650097,126.213142 C220.054386,125.818211 218.394958,125.754386 216.773738,126.025588 C210.792166,126.966896 205.343779,129.274163 201.067697,133.651599 C198.670124,136.107493 196.703338,138.998654 194.634152,141.76242 C191.240828,146.288484 188.190014,151.044567 184.351779,155.276915 C180.608883,159.4031 176.2304,162.517202 171.449379,165.089875 C168.476248,166.700008 165.20651,167.736862 162.046234,168.971887 Z M174.704993,274.292234 C175.559503,277.6222 177.233214,280.336423 179.019917,283.107267 L178.469076,283.584998 C177.370924,282.434904 176.131531,281.39451 175.2064,280.12056 C172.279172,276.079304 171.410538,271.443539 172.275641,266.634374 C172.738207,264.051085 173.899917,261.573958 174.930979,259.125142 C176.142124,256.241059 177.618097,253.463138 178.850428,250.589671 C179.994967,248.012354 181.005029,245.377146 181.876524,242.694715 C182.582731,240.373293 182.957021,237.94217 183.476083,235.557051 C184.132855,232.556189 184.944993,229.580098 185.389903,226.550926 C185.743007,224.250737 186.576331,222.237187 187.554428,220.181172 C189.151155,216.70449 191.838223,213.846269 195.206179,212.042042 C197.776772,210.626541 200.502731,210.240817 203.281655,210.021414 L203.546483,210.683161 C202.631945,211.090117 201.752717,211.684628 200.795807,211.868643 C196.5056,212.696711 193.380634,215.145527 191.124303,218.747977 C189.411271,221.487518 188.520195,224.662848 188.557241,227.895652 C188.557241,231.540567 188.627862,235.210253 188.225324,238.819781 C187.607393,244.340234 185.99371,249.574049 182.547421,254.103652 C180.49589,256.80372 178.281931,259.443629 176.678841,262.405565 C174.712055,266.025709 173.557407,269.840484 174.704993,274.292234 Z M199.326897,325.448439 C195.386262,323.424272 191.45269,321.477958 188.126455,318.484174 C185.96172,316.532804 184.249153,314.130453 183.108855,311.445595 C181.876524,308.639365 182.162538,305.826057 182.095448,302.9809 C182.095448,302.400544 182.335559,301.81665 182.448552,301.232756 L182.904055,301.331841 C183.257159,303.430321 183.437241,305.596038 184.04811,307.620204 C185.527614,312.535531 188.235917,316.619251 193.158179,318.639879 C196.33611,319.945679 199.831834,320.561422 202.935614,322.015849 C207.172855,324.001089 211.791448,325.483826 214.863448,329.447229 C217.43051,332.770117 220.223559,335.916068 222.808276,339.22834 C224.856276,341.850556 227.176166,344.253369 230.177545,345.573323 C233.669738,347.102064 237.419697,347.82397 241.190841,346.189066 C242.41611,345.658253 243.641379,345.12744 244.894897,344.67448 C245.248,344.540008 245.707034,344.653248 246.116634,344.653248 L246.349683,345.247758 C245.265655,345.905966 244.202814,346.6031 243.094069,347.211766 C239.209931,349.335017 235.216331,349.271319 231.046179,348.199078 C224.746814,346.57479 220.424828,342.183198 215.979255,337.872998 C210.968717,333.031985 205.548579,328.651009 199.326897,325.448439 L199.326897,325.448439 Z M308.18869,399.606533 C312.623669,396.563206 315.649766,392.295471 318.1568,387.624318 C318.976,388.360378 319.156083,388.884113 318.569931,390.267766 C316.99509,393.979917 315.392,397.773459 312.097545,400.285974 C309.31509,402.409225 306.44789,404.398004 303.061628,405.68611 C295.067366,408.711743 287.0272,408.290631 278.859917,406.935289 C274.5344,406.227539 270.162979,405.792272 265.8304,405.112832 C257.521876,403.81411 249.195697,404.079516 240.876579,404.80496 C235.530593,405.268537 230.216386,406.103682 224.866869,406.47879 C222.518731,406.641573 220.099972,406.170919 217.741241,405.79935 C215.809766,405.495017 213.924193,404.896968 212.010372,404.46524 C209.008993,403.792877 206.57611,402.076582 204.139697,400.321361 C200.354428,397.60006 197.963917,393.810057 195.983007,389.705104 C195.629903,388.997353 195.735834,388.038352 195.629903,387.196129 L196.254897,387.196129 C198.89611,392.773202 203.260469,396.499509 208.715917,399.171267 C213.133241,401.333444 217.656497,403.000197 222.628193,402.433996 C225.21291,402.14028 227.744662,401.312212 230.283476,400.66462 C232.306759,400.144423 234.308855,399.535758 236.321545,398.96248 C237.589186,398.608605 238.846234,398.201648 240.117407,397.869006 C242.31371,397.295728 244.492359,396.520741 246.727503,396.273028 C250.738759,395.823607 254.792386,395.437883 258.817766,395.526352 C262.139992,395.647917 265.439971,396.122406 268.66229,396.941853 C271.536552,397.649603 274.266041,398.927093 277.066152,399.935637 C278.259641,400.365006 279.46137,400.766064 280.671338,401.138813 C286.342179,402.87634 292.073048,404.355539 298.065214,403.509777 C299.971972,403.240832 301.832828,402.50831 303.65131,401.814715 C305.244957,401.25956 306.767888,400.518404 308.18869,399.606533 Z M328.050759,311.187267 C325.932138,317.043902 321.415945,320.274783 316.281821,323.017316 C308.661848,327.083342 301.345545,331.552786 295.272166,337.880076 C291.631669,341.670079 287.592166,345.067282 282.842924,347.434707 C281.705286,348.000993 280.488554,348.391151 279.234207,348.591879 C274.213076,349.402253 269.435586,348.910367 265.304276,345.548552 C265.18069,345.449467 265.134786,345.254836 264.912331,344.840802 C265.4208,344.748794 265.876303,344.515236 266.20469,344.632015 C267.567669,345.120363 268.916524,345.661792 270.226538,346.281074 C272.821848,347.505482 275.600772,347.268386 278.136055,346.634949 C282.832331,345.431773 286.123255,342.080575 289.057545,338.336575 C291.762317,334.886291 294.534179,331.478473 297.454345,328.208665 C299.703614,325.689074 302.715586,324.255879 305.893517,323.180098 C307.2,322.734216 308.474703,322.189248 309.777655,321.722132 C311.627917,321.063924 313.471117,320.36679 315.349628,319.804129 C320.077683,318.388628 323.418041,315.380688 325.684966,311.045716 C327.363701,307.978129 328.133052,304.49375 327.902455,301.002737 L328.470952,300.977966 C328.643972,301.331841 328.958234,301.64679 328.968828,301.990049 C329.092414,305.097074 329.155972,308.126246 328.050759,311.187267 Z M340.010372,274.547025 C339.279448,278.007924 337.217324,280.796461 334.583172,283.132038 C334.443871,283.240919 334.278088,283.310553 334.102952,283.333747 C333.818738,283.332741 333.535163,283.30669 333.255503,283.255894 C334.085297,282.137648 334.805628,281.25296 335.434152,280.304575 C337.98709,276.447335 338.894566,272.048665 337.997683,267.685384 C337.415062,264.854382 335.554207,262.200318 333.975834,259.648877 C331.81131,256.141974 329.099476,252.953558 327.13269,249.347569 C325.134124,245.68496 324.36789,241.523388 324.417324,237.315811 C324.473821,232.485414 324.495007,227.64794 323.308579,222.952015 C322.425821,219.466344 320.27189,216.67073 317.489434,214.398851 C315.752166,212.98335 313.697103,212.310987 311.543172,211.812023 C310.565076,211.585543 309.6576,211.065346 308.718345,210.676083 L308.852524,210.042647 C309.703503,210.11696 310.554483,210.212507 311.408993,210.262049 C314.507413,210.452766 317.463004,211.634858 319.841103,213.63448 C322.926413,216.087346 325.217871,219.400907 326.426483,223.157263 C327.61291,226.894185 328.018979,230.871743 328.855834,234.725444 C329.38549,237.174261 330.052855,239.594767 330.706097,242.011735 C331.040406,243.415708 331.475866,244.793537 332.009048,246.134382 C333.820469,250.306571 335.759007,254.42214 337.598676,258.580174 C339.851476,263.679516 341.189738,268.969951 340.010372,274.547025 L340.010372,274.547025 Z M402.944,274.320544 C401.88469,280.230261 399.554207,285.67994 396.566952,290.835902 C393.742124,295.698147 390.663062,300.390533 387.898262,305.298783 C386.401103,307.942231 385.292359,310.805081 384.088276,313.607773 C382.654676,316.944817 381.206952,320.28186 379.956966,323.689679 C379.282538,325.536907 379.038897,327.536302 378.544552,329.450767 C377.750069,332.47994 377.082703,335.558654 376.030455,338.499357 C374.842192,341.713481 373.483154,344.861573 371.959172,347.930132 C369.43791,353.12657 365.277977,357.345345 360.123145,359.93358 C356.041269,362.056832 351.609821,363.13969 346.927669,362.637187 C346.6363,362.616157 346.347712,362.566373 346.066097,362.48856 C345.917793,362.442556 345.797738,362.283312 345.518786,362.060371 C345.946041,361.851584 346.277959,361.547251 346.602814,361.557868 C349.66069,361.671108 352.439614,360.690873 355.119669,359.370919 C360.519717,356.535591 365.039023,352.268365 368.184497,347.034828 C369.838639,344.21398 370.819904,341.048174 371.051697,337.784529 C371.334179,332.922284 371.757903,328.056499 372.407614,323.23318 C372.86667,319.761146 373.593892,316.330052 374.582731,312.970798 C375.796151,308.767389 377.772426,304.824194 380.412469,301.338919 C383.519779,297.30828 386.648276,293.291796 389.914483,289.392091 C392.887614,285.853338 396.012579,282.349974 397.838124,278.099932 C400.016772,273.011206 401.146703,267.657074 399.5648,262.048151 C398.145057,257.12611 395.656222,252.579859 392.276745,248.735365 L392.425048,248.218707 C392.937048,248.388567 393.554979,248.427493 393.943393,248.745981 C397.184883,251.396507 399.946152,254.407985 401.376221,258.484628 C403.18411,263.654745 403.911503,268.906253 402.944,274.320544 L402.944,274.320544 Z" id="Shape" fill="#FF0000"></path>
                <path d="M285.272276,257.341611 C286.103754,255.577811 286.804786,253.755164 287.36971,251.888393 C287.450924,251.605293 286.780028,250.894004 286.3104,250.702911 C283.838676,249.641285 281.691807,248.307176 281.409324,245.313391 C281.285738,244.007592 281.388138,242.68056 281.388138,241.098737 C280.23349,241.314601 279.234207,241.834798 278.506814,241.576469 C276.0704,240.716552 273.542179,239.853096 272.744166,236.862851 C272.391062,235.50397 271.967338,233.833679 270.039393,235.631365 C269.852248,235.804764 269.333186,235.574745 268.980083,235.631365 C268.446855,235.753466 267.920069,235.902281 267.40171,236.077248 L267.193379,236.60806 C275.907972,241.194284 283.188966,247.004915 285.272276,257.341611 Z" id="Path" fill="#FF0000"></path>
                <path d="M265.710345,292.62651 C264.686345,292.828219 263.704717,293.334261 262.680717,293.440423 C260.7104,293.645671 258.718897,293.688136 256.734455,293.737679 C255.32175,293.800728 253.906471,293.773543 252.497214,293.656287 C251.543834,293.553664 250.590455,293.022851 250.145545,293.921694 C251.204855,295.471667 251.995807,296.692537 252.829131,297.895713 C252.984497,298.122193 253.281103,298.465452 253.44,298.430064 C253.765811,298.344173 254.045601,298.134823 254.220359,297.84617 C255.382069,295.722919 257.39829,294.523282 259.749959,295.015168 C261.086437,295.344828 262.361056,295.888532 263.524634,296.625301 C264.774621,297.368439 265.537324,297.202117 265.996359,295.853853 C266.246383,295.261701 266.54891,294.693222 266.900303,294.155251 C267.182786,293.635055 267.472331,293.118397 267.758345,292.5982 C267.076307,292.543112 266.390607,292.552591 265.710345,292.62651 Z" id="Path" fill="#FF0000"></path>
                <path d="M283.125407,278.372416 C282.860579,278.567047 282.48629,278.705059 282.345048,278.966926 C281.8048,279.957777 281.518786,281.136181 280.81611,281.978405 C278.136055,285.163282 275.494841,288.464938 271.458869,290.152922 C271.081048,290.308628 270.957462,291.072998 270.752662,291.483493 C271.956745,291.837369 272.948966,292.063849 273.877628,292.446034 C275.840883,293.25287 276.282262,292.941459 276.0704,290.761588 C276.033967,290.527084 276.033967,290.288342 276.0704,290.053837 C276.797793,286.932658 280.773738,284.246745 284.011697,284.77048 C283.895172,282.802934 283.813959,280.994631 283.658593,279.189868 C283.644469,278.89969 283.316083,278.641361 283.125407,278.372416 Z" id="Path" fill="#FF0000"></path>
                <path d="M244.421738,237.581217 C244.382897,237.425512 244.347586,237.266268 244.312276,237.110563 L238.083531,237.110563 C238.083531,237.37597 238.111779,237.740461 238.083531,238.097875 C237.857545,240.663471 235.714207,243.406004 233.472,243.89789 C232.461849,244.059478 231.443204,244.162274 230.421186,244.205762 C230.544772,245.200151 230.664828,246.191002 230.77429,247.185391 C230.779604,247.246614 230.779604,247.308184 230.77429,247.369406 L230.710731,249.375879 C231.328662,248.912302 231.950124,248.462881 232.553931,247.985149 C232.68811,247.878987 232.741076,247.677278 232.850538,247.539267 C235.456441,244.297769 238.267145,241.303985 242.031228,239.339977 C242.8928,238.887017 243.641379,238.175728 244.421738,237.581217 Z" id="Path" fill="#FF0000"></path>
                <path d="M231.148579,278.966926 C230.410593,277.979614 230.05749,276.705664 229.524303,275.562647 C229.266538,275.003524 229.00171,274.44794 228.740414,273.892355 C228.348469,274.355932 227.931807,274.798276 227.56811,275.283085 C227.170177,275.819648 226.801242,276.377212 226.462897,276.953376 C226.2519,277.361007 226.064446,277.780451 225.901462,278.209633 C231.741793,279.313724 233.005903,283.100189 232.313821,287.980129 L238.136497,287.980129 C237.838415,287.450841 237.511903,286.938148 237.1584,286.44431 C235.166897,283.953028 233.048276,281.525444 231.148579,278.966926 Z" id="Path" fill="#FF0000"></path>
                <path d="M287.348524,259.256076 C287.005625,258.858536 286.693962,258.434978 286.416331,257.989202 C286.186814,258.491705 285.73131,259.004824 285.759559,259.489633 C285.893738,261.878291 286.151503,264.26341 286.388083,266.850238 C286.607536,266.686569 286.818496,266.511762 287.020138,266.326503 C288.030014,265.28611 289.03989,264.242178 290.035641,263.184091 C290.332248,262.872681 290.57589,262.511728 290.844248,262.175546 C290.486236,262.014868 290.145496,261.81804 289.82731,261.588113 C288.976331,260.837898 288.132414,260.062911 287.348524,259.256076 Z" id="Path" fill="#FF0000"></path>
                <path d="M264.121379,235.457966 C264.015208,235.141335 263.87428,234.8375 263.701186,234.552045 C262.931421,233.539962 262.129876,232.545573 261.331862,231.551183 C261.116469,231.285777 260.883421,230.843433 260.625655,230.843433 C260.36789,230.843433 260.078345,231.197308 259.827641,231.44856 C259.156745,232.085535 258.475255,232.715433 257.8432,233.391335 C257.510211,233.822033 257.210386,234.277486 256.946317,234.753754 C259.153214,235.24918 260.918731,235.70214 262.708966,236.006473 C263.160938,236.077248 263.665876,235.652597 264.121379,235.457966 Z" id="Path" fill="#FF0000"></path>
                <path d="M287.133131,269.8511 C286.971108,269.625118 286.703927,269.499268 286.426924,269.518457 C286.12974,269.704431 285.901532,269.982857 285.777214,270.311138 C284.996855,272.306994 284.212966,274.299312 283.542069,276.327017 C283.411421,276.723357 283.782179,277.28248 283.91989,277.767289 C284.209715,277.641506 284.486472,277.487416 284.746152,277.307251 C285.748966,276.472106 286.695283,275.569724 287.733407,274.78766 C288.107697,274.508098 288.683255,274.497482 289.170538,274.363009 L288.351338,273.690647 C287.945269,272.409618 287.578041,271.117974 287.133131,269.8511 Z" id="Path" fill="#FF0000"></path>
                <path d="M252.899752,234.810374 C251.45909,233.869066 249.972524,233.002072 248.835531,232.333248 C247.839779,233.663819 247.038234,234.693595 246.293186,235.765837 C246.11686,236.108687 245.988535,236.474261 245.911834,236.852234 C246.289655,236.965474 246.844028,237.298117 247.020579,237.156567 C248.641324,235.872 250.519834,235.946314 252.408938,235.914465 C252.589021,235.896771 252.959779,234.849301 252.899752,234.810374 Z" id="Path" fill="#FF0000"></path>
                <polygon id="Path" fill="#FF0000" points="242.03829 294.424197 246.755752 293.447501 247.027641 292.962692 239.714869 288.716189"></polygon>
                <path d="M227.751724,259.666571 C227.914152,259.694881 228.337876,259.280847 228.31669,259.103909 C228.083641,257.154057 228.775724,255.444839 229.563145,253.742699 C229.640828,253.579917 229.471338,253.300355 229.379531,252.928786 L224.768,254.998957 C225.509517,256.414457 226.180414,257.791032 226.939586,259.121603 C227.125572,259.405902 227.418587,259.602523 227.751724,259.666571 Z" id="Path" fill="#FF0000"></path>
                <path d="M227.246786,263.364567 L226.692414,262.954072 C225.82731,264.107705 224.926897,265.250722 224.111228,266.429127 C224.01221,266.66437 224.047292,266.934825 224.203034,267.136877 C225.262345,267.996794 226.378152,268.807168 227.70229,269.801558 C227.515145,267.338586 227.398621,265.353346 227.246786,263.364567 Z" id="Path" fill="#FF0000"></path>
                <path d="M270.261848,480.006987 C272.733572,489.264363 275.166455,498.43327 277.726455,508.040983 C279.364855,498.256333 280.929103,488.889255 282.535724,479.306314 L291.010207,478.803811 C288.068855,492.25107 285.166345,505.549701 282.232055,518.989883 C279.79211,519.127894 277.387476,519.322526 274.986372,519.343758 C274.633269,519.343758 274.036524,518.568771 273.898814,518.059191 C271.451807,508.886745 269.061297,499.700144 266.653131,490.517081 C266.628414,490.410919 266.575448,490.315372 266.360055,489.773943 C264.862897,500.103561 263.425766,510.029762 261.963917,520.125822 L254.276855,520.635403 C249.799503,507.697724 245.336276,494.80251 240.795366,481.709127 C243.599007,481.546344 246.20491,481.355251 248.814345,481.30217 C249.195697,481.30217 249.803034,482.034692 249.951338,482.533656 C251.808662,488.740628 253.625968,494.958216 255.403255,501.18642 C256.109462,503.698934 256.755641,506.236219 257.659586,508.727501 C258.464662,502.810707 259.269738,496.895093 260.074814,490.980658 C260.5056,487.824091 260.918731,484.660446 261.413076,481.514495 C261.473103,481.114616 261.953324,480.491796 262.28171,480.45287 C264.9088,480.233467 267.539421,480.141459 270.261848,480.006987 Z" id="Path" fill="#0D0094"></path>
                <path d="M62.8276966,389.26276 C61.3058207,386.566231 60.0664276,384.43944 58.9188414,382.263108 C58.7915837,381.82996 58.8781593,381.361956 59.1518897,381.003312 C61.7401379,378.062609 61.7542621,374.845883 60.2112,371.480529 C58.5445517,367.842692 55.7338483,365.43634 51.7367172,365.383259 C44.9889103,365.298329 39.5264,368.30273 35.5787034,373.713482 C33.1246345,377.075297 33.890869,382.475433 36.864,385.985875 C39.6464552,389.273376 43.8413241,390.320847 47.9373241,388.590397 C46.5001931,386.017724 45.0771862,383.459206 43.5729655,380.766216 L49.3462069,377.46456 C52.0580414,382.252491 54.7239724,386.962571 57.5028966,391.863743 C54.377931,393.633119 51.3483034,395.349414 48.3222069,397.072786 C45.2961103,398.796159 42.2276414,400.547841 39.0214621,402.380915 L36.2778483,397.578828 L39.8900966,394.546117 C39.5369931,394.365641 39.3639724,394.192242 39.1662345,394.192242 C30.518731,393.466798 23.5378759,381.328877 27.6833103,371.657467 C28.4907379,369.680247 29.59584,367.83876 30.9601103,366.197172 C35.0949517,361.426934 40.3985655,358.411917 46.6237793,357.537845 C55.6279172,356.260355 62.6935172,360.421928 66.563531,368.759229 C68.8798897,373.74887 69.5048828,378.798669 66.8742621,383.813081 C65.8891034,385.649694 64.3707586,387.210284 62.8276966,389.26276 Z" id="Path" fill="#0D0094"></path>
                <path d="M31.9240828,316.778495 C41.263669,316.817422 47.4606345,321.860144 50.0206345,330.908733 C52.5206069,339.730843 49.455669,347.402858 41.4614069,351.932461 C36.3060966,354.859009 30.7553103,356.624847 24.777269,355.9631 C16.6064552,355.060718 11.9101793,350.028612 9.59382069,342.399062 C6.90670345,333.552181 9.85158621,325.830624 17.8529103,321.095773 C22.4185379,318.395705 27.3655172,316.912968 31.9240828,316.778495 Z M27.6197517,347.887671 C31.8569931,347.470095 36.7439448,346.072287 40.6210207,342.261051 C43.3505103,339.578677 44.2262069,336.284098 43.1668966,332.579025 C42.0687448,328.732401 39.6605793,326.074798 35.6563862,325.335198 C29.8478345,324.255879 24.681931,326.131418 20.1198345,329.549853 C16.175669,332.490556 15.0457379,336.729981 16.5888,341.121573 C18.1318621,345.513164 21.6558345,347.891206 27.6197517,347.887671 Z" id="Shape" fill="#0D0094"></path>
                <path d="M192.95691,496.540038 C191.7952,501.688922 190.675862,506.646715 189.510621,511.795599 L181.579917,510.026223 L190.255669,471.276885 C193.518345,472.005868 196.611531,472.667614 199.697655,473.400136 C203.691255,474.348522 207.727228,475.169512 211.653738,476.362072 C219.648,478.768423 221.346428,489.643009 214.958786,495.262548 C213.938317,496.161391 212.487062,496.586042 211.074648,497.322102 C215.103559,500.351274 213.94891,504.466843 213.12971,508.522253 C212.8896,509.704197 212.423503,510.875524 212.395255,512.061006 C212.367007,513.246488 212.705986,514.481512 212.903724,515.691766 C212.960221,516.045641 213.090869,516.371206 213.256828,517.01172 C212.162207,516.838321 211.325352,516.739236 210.49909,516.565837 C209.160828,516.282737 207.833159,515.939478 206.494897,515.642223 C203.949021,515.076023 203.818372,515.068945 204.11851,512.457346 C204.418648,509.845747 205.029517,507.149217 205.485021,504.505769 C206.057048,501.168726 205.184883,499.572749 201.978703,498.673905 C199.0656,497.835221 196.06069,497.254866 192.95691,496.540038 Z M194.369324,490.170284 C198.013352,490.934654 201.516138,491.745028 205.050703,492.389081 C207.522428,492.842042 209.316193,491.571629 210.1248,489.030805 C211.099366,485.962707 210.477903,483.393573 208.006179,482.569043 C204.365683,481.344635 200.591007,480.56611 196.706869,479.564643 C195.912386,483.276794 195.163807,486.627992 194.369324,490.187977 L194.369324,490.170284 Z" id="Shape" fill="#0D0094"></path>
                <path d="M437.173848,418.698102 L426.933848,430.121195 C431.329986,434.088136 435.634317,437.973686 440.083421,441.983093 L434.592662,448.140522 L405.140303,421.638805 L410.638124,415.491992 L421.849159,425.549127 L432.089159,414.143728 L420.913434,404.04059 L426.404193,397.893777 L455.863614,424.395493 L450.358731,430.545845 L437.173848,418.698102 Z" id="Path" fill="#0D0094"></path>
                <path d="M132.74571,489.306828 L125.704828,484.971856 L134.910234,469.932159 L121.9584,461.93104 L112.714152,476.93535 L105.652083,472.614533 L126.446345,438.805293 L133.508414,443.143803 C130.856607,447.46462 128.278952,451.672197 125.60949,456.024862 L138.561324,464.022442 L146.492028,451.162616 L153.529379,455.508204 L132.74571,489.306828 Z" id="Path" fill="#0D0094"></path>
                <path d="M293.446621,477.851887 L321.504221,470.420507 C322.111559,472.692386 322.69771,474.889951 323.319172,477.211372 L303.114593,482.583198 C303.841986,485.339887 304.527007,487.958563 305.261462,490.701096 L323.792331,485.821157 C324.389076,488.071803 324.946979,490.173822 325.557848,492.50586 L307.03051,497.460113 L309.576386,507.216454 L330.71669,501.660612 C331.334621,503.974957 331.924303,506.168983 332.552828,508.525792 L303.541848,516.204885 L293.446621,477.851887 Z" id="Path" fill="#0D0094"></path>
                <path d="M76.9765517,388.247138 L95.5639172,410.541278 L90.1861517,415.070881 C85.6699586,409.663667 81.2526345,404.369694 76.7682207,399.012023 L70.4123586,404.320151 L82.6932966,419.105059 L77.3967448,423.52496 L65.0840276,408.789595 L57.3157517,415.307977 L71.3092414,432.106435 L65.846731,436.706813 C59.4520276,429.031259 53.0996966,421.415864 46.6237793,413.644764 L76.9765517,388.247138 Z" id="Path" fill="#0D0094"></path>
                <path d="M177.854676,482.901686 C176.957793,485.134639 176.149186,487.148189 175.298207,489.27144 L157.501793,482.133777 C156.230621,485.293883 155.008883,488.319516 153.705931,491.561013 L173.995255,499.753225 C173.094841,501.982639 172.229738,504.098813 171.322262,506.377769 L143.504772,495.188234 C148.423503,482.905225 153.285738,470.770843 158.229186,458.406442 L185.153324,469.238563 C184.288221,471.425512 183.458428,473.53107 182.561545,475.806488 L163.140855,468.021233 C162.102731,470.60806 161.11051,473.081648 160.054731,475.725096 L177.854676,482.901686 Z" id="Path" fill="#0D0094"></path>
                <path d="M491.230455,306.293172 L501.219752,307.889149 C502.367338,300.716098 503.5008,293.635055 504.676634,286.30276 L511.696331,287.364386 C510.117959,297.329512 508.564303,307.114163 506.985931,317.058057 L467.911503,310.819236 C469.426317,301.264605 470.923476,291.801981 472.455945,282.1058 L479.387366,283.195735 C478.3104,290.071531 477.247559,296.869474 476.149407,303.865588 L484.408497,305.206775 C485.132359,300.701943 485.82091,296.359894 486.527117,292.046155 C486.770759,290.52803 487.007338,289.009905 487.233324,287.484703 C487.339255,286.730949 487.586428,286.242601 488.48331,286.398306 C490.312386,286.713255 492.148524,286.978662 494.224772,287.300688 C493.211366,293.638594 492.226207,299.849104 491.230455,306.293172 Z" id="Path" fill="#0D0094"></path>
                <path d="M454.377048,351.362722 L460.584607,354.607758 C457.378428,360.797036 454.228745,366.880151 450.973131,373.175592 L458.317683,377.029293 L467.18411,359.979584 L473.303393,363.164461 C470.362041,368.854775 467.466593,374.449543 464.475807,380.21417 L473.465821,384.917172 C476.852083,378.416484 480.174786,372.014881 483.582234,365.485883 L489.867476,368.762767 C485.277131,377.648575 480.686786,386.456529 476.039945,395.434344 L440.96971,377.174382 L454.377048,351.362722 Z" id="Path" fill="#0D0094"></path>
                <path d="M394.441269,480.134382 C392.068414,481.447259 389.752055,482.781369 387.3792,483.988083 C387.026097,484.16856 386.238676,483.885459 385.87851,483.563433 C384.112993,481.988688 382.439283,480.329013 380.581959,478.570253 C378.442152,479.749837 376.29646,480.922344 374.144883,482.087773 C372.750124,482.855682 371.365959,483.641285 369.974731,484.409195 C367.760772,485.630064 367.767834,485.626526 368.276303,488.149656 C368.481103,489.175894 368.629407,490.205671 368.834207,491.231909 C369.346207,494.041679 369.349738,494.041679 366.945103,495.354556 C365.306703,496.246321 363.668303,497.123932 361.825103,498.128938 C361.429628,495.807516 361.037683,493.617028 360.684579,491.405308 C358.873159,480.183924 357.089986,468.955463 355.239724,457.737618 C355.084359,456.799849 355.267972,456.322117 356.076579,455.911622 C358.117517,454.849996 360.091366,453.639743 362.157021,452.624121 C362.644303,452.383486 363.611807,452.411796 363.986097,452.7409 C374.063669,461.663274 384.109462,470.618677 394.123476,479.607108 C394.249656,479.76978 394.356318,479.946752 394.441269,480.134382 Z M366.471945,478.418087 L375.267752,473.541686 L363.459972,462.35569 C364.505159,467.91507 365.462069,473.000257 366.471945,478.418087 Z" id="Shape" fill="#0D0094"></path>
                <path d="M403.833821,439.619206 C401.630455,438.239093 399.596579,436.926216 396.965959,437.471183 C391.563476,438.596507 388.413793,443.40921 389.90389,448.738571 C391.357756,454.181514 394.948537,458.80267 399.857876,461.548854 C405.295669,464.645263 412.12469,461.354223 412.792055,455.34896 C412.993324,453.530042 412.290648,451.612038 411.965793,449.502941 L418.017986,444.683161 C422.255228,450.978601 421.195917,459.967032 415.669848,465.119456 C407.195366,473.028567 396.831779,472.373898 388.766897,463.378389 C385.694897,459.952877 383.149021,456.177028 382.057931,451.619115 C379.93931,442.605913 384.822731,434.173066 394.169379,430.740476 C399.441214,428.811856 404.303448,429.785013 408.759614,433.086669 C409.27545,433.517941 409.769245,433.975021 410.239117,434.456166 L403.833821,439.619206 Z" id="Path" fill="#0D0094"></path>
                <path d="M489.606179,340.597837 L475.513821,331.191834 C472.134621,328.937648 468.769545,326.655153 465.369159,324.432817 C464.557021,323.902004 464.271007,323.420733 464.627641,322.422805 C465.425655,320.207546 466.071834,317.935667 466.845131,315.472696 C468.536497,316.70772 470.1184,317.850737 471.686179,319.011448 C480.828028,325.766926 489.952221,332.547176 499.129379,339.260189 C500.248717,340.08118 500.541793,340.796008 500.029793,342.091191 C499.323586,343.917187 498.804524,345.824575 498.183062,347.781505 L456.386207,348.517565 C457.254841,345.778571 457.982234,343.209437 458.935614,340.73231 C459.087448,340.332431 460.235034,340.130722 460.916524,340.144877 C465.799945,340.247501 470.676303,340.498752 475.559724,340.573066 C480.22069,340.657996 484.849876,340.597837 489.606179,340.597837 Z" id="Path" fill="#0D0094"></path>
                <path d="M122.593986,435.974291 C121.040331,437.743667 119.53611,439.470578 117.943614,441.28242 L109.038345,433.497164 L87.657931,457.914556 L81.4433103,452.464877 C88.5901241,444.28682 95.6592552,436.186616 102.806069,428.019176 L93.9255172,420.177301 L98.5829517,414.869172 L122.593986,435.974291 Z" id="Path" fill="#0D0094"></path>
                <path d="M32.4184276,291.593195 C31.8146207,287.66518 31.228469,283.846866 30.6176,279.890541 L37.5348966,278.761679 C39.222731,289.349626 40.8858483,299.796023 42.5701517,310.391047 L35.6634483,311.516371 C35.1055448,308.129784 34.4523034,304.8529 34.0638897,301.544166 C33.8802759,300.00127 33.3188414,299.813716 31.945269,300.036658 C21.9383172,301.685716 11.9207724,303.271078 1.65252414,304.920136 C1.20055172,302.205913 0.755641379,299.541233 0.289544828,296.724386 L32.4184276,291.593195 Z" id="Path" fill="#0D0094"></path>
                <polygon id="Path" fill="#0D0094" points="468.465876 406.800817 463.759007 413.697845 431.086345 391.294004 435.803807 384.404053"></polygon>
            </g>
        </g>
    </g>
</svg>