<svg xmlns="http://www.w3.org/2000/svg" height="128" viewBox="0 0 128 128" width="128">
    <path
        d="M121.61 65.36c0-4.29-.4-8.41-1.1-12.36H64v22.98h32.33c-1.34 7.62-5.56 14.12-12.01 18.45v15.09h19.44c11.33-10.45 17.85-25.89 17.85-44.16z"
        fill="#4285F4" />
    <path
        d="M64 124c16.19 0 29.83-5.32 39.76-14.48L84.32 94.43c-5.36 3.6-12.26 5.71-20.32 5.71-15.61 0-28.86-10.53-33.59-24.73H10.39v15.53C20.26 110.54 40.55 124 64 124z"
        fill="#34A853" />
    <path
        d="M10.39 90.94l20.02-15.53c-1.2-3.61-1.86-7.44-1.86-11.41 0-3.97.66-7.8 1.86-11.41V37.06H10.39C6.31 45.16 4 54.31 4 64c0 9.69 2.31 18.84 6.39 26.94z"
        fill="#FBBC05" />
    <path
        d="M64 27.86c8.82 0 16.72 3.04 22.95 8.97l17.2-17.2C93.75 9.95 80.18 4 64 4 40.55 4 20.26 17.46 10.39 37.06l20.02 15.53C35.14 38.4 48.39 27.86 64 27.86z"
        fill="#EA4335" />
    <path d="M4 64V4h120v120H4z" fill="none" />
</svg>